<mxfile host="Electron" agent="Mozilla/5.0 (Macintosh; Intel Mac OS X 10_15_7) AppleWebKit/537.36 (KHTML, like Gecko) draw.io/27.0.5 Chrome/134.0.6998.205 Electron/35.3.0 Safari/537.36" version="27.0.5">
  <diagram name="Page-1" id="PX7HvwX_EC8F2kyNR72n">
    <mxGraphModel dx="928" dy="666" grid="1" gridSize="10" guides="1" tooltips="1" connect="1" arrows="1" fold="1" page="1" pageScale="1" pageWidth="850" pageHeight="1100" background="#ffffff" math="0" shadow="0">
      <root>
        <mxCell id="0" />
        <mxCell id="1" parent="0" />
        <mxCell id="SQ3NC_S40KwjwUbllQxm-1" value="&lt;font size=&quot;1&quot;&gt;Orchestration Service&lt;/font&gt;" style="rounded=1;whiteSpace=wrap;html=1;align=left;verticalAlign=top;labelBackgroundColor=none;fillColor=#dae8fc;strokeColor=#6c8ebf;" parent="1" vertex="1">
          <mxGeometry x="41" y="150" width="320" height="110" as="geometry" />
        </mxCell>
        <mxCell id="SQ3NC_S40KwjwUbllQxm-2" value="API Gateway" style="rounded=1;whiteSpace=wrap;html=1;labelBackgroundColor=none;fillColor=#d5e8d4;strokeColor=#82b366;" parent="1" vertex="1">
          <mxGeometry x="60" y="140" width="280" height="20" as="geometry" />
        </mxCell>
        <mxCell id="SQ3NC_S40KwjwUbllQxm-3" value="Channels" style="rounded=1;whiteSpace=wrap;html=1;align=left;verticalAlign=top;labelBackgroundColor=none;" parent="1" vertex="1">
          <mxGeometry x="37" y="20" width="320" height="80" as="geometry" />
        </mxCell>
        <mxCell id="SQ3NC_S40KwjwUbllQxm-6" value="Discord" style="shape=image;verticalLabelPosition=bottom;labelBackgroundColor=none;verticalAlign=top;aspect=fixed;imageAspect=0;image=data:image/png,iVBORw0KGgoAAAANSUhEUgAAAIAAAACACAYAAADDPmHLAAAZ6UlEQVR4nO2daZBdx3Xff9333nff/mbHbFgHIBYCIEAKsMiIEulIpinali0JiW3Z5TIl2a5K8iWVSvIlla/J1ySVSsmW4qo4VS6TkmWlKJFWiRJEGiRIkMRCYSFAECQGA2AGs7/9Lp0Pfe+dGWKbmXffYIB5/2INMW/e7dO3z+nTp7vPIpRSirvAVyDF3O9Xx2qcu1Th6miVG5MO49MOtZqi7vp3a6qFGJAwJbYt6CxYdLVb9PUk2b4pRV+3HX3n0zy7HcSdBCD8ixBQr/scP1fkjRPTDF+rUap4KAWWKTAkCCEQiyDYQuNQCpRSeD44rkIIyKQMBnttHn+kwL7tWRIJuYB/t8NtBWC+BL11appXXp9g+HoNyxJYpsQ0RNAZBfq/FlYQIvghAu66nsJxfRxHMbjO5pnPdXBwTwG4sza4pQCED0zOOLzwyijvnS5iWYJkQqKUwm9xe1VCBgJRrWtB2L8ry6FnemjPW7cVgpsEwPPBkHBxuMJ3vz/C+JRLPmO0GH8fIRSEmZJHZ5vJN7/Wz5bBVMTb+VggAL4PUsLpD0v85QsjeL4iZUtcr8X5+xGmIajUfAwp+PahfnYNZSIeh4j+6Sv9hw8vV/irF0dQSmEnWsy/n+F6modKKf7qxRE+vFxBShZocgnaqpQCpmZdvveDEVxPYVkSv6Xz73v4vual6ym+94MRpmZdpJjb4WkBQKEUvPDyKONTDkm7xfwHCb6vSNqS8SmHF14e1dvIYN8mfR+kELx7eoZ3Ts+Sz5h4LbX/wMHzFPmMyTunZ3n39AxSCELeU6v7/Pi1cRKmwL/7wWAL9yl8pUiYgh+/Nk6t7iNEIAAnzxUZvlYjac+dHrXw4EEpSNqS4Ws1Tp4ragEAOHJ8BssULOJaoIX7HEopLFNw5PgMAPLaWI3h61UsS7SOc9cAFGBZguHrVa6N1ZDnLlUoVVxMo6X+1wKUAtOQlCou5y5VkFdGqyglaF3krR0IQCnBldEqcnyyjtWy/tcU/MAOGJ+sI8en3ZsuCFp48GFIGJ92kdWaQgjRWv/XEJQKro1rCum4fsuTZw1CCHBcn5byX+NoCcAaR0sA1jhaArDG0RKANY6WAKxxtARgjaMlAGscD4QACO4c/hQ7PcEDc3lm3usOLBUho4UQwa2WjpHzPIVhNPdWUwTetI6rMORcTKQK+gHcd0fq94UAhL5rvlK4rsLzFa6nmW5ZgpQtSacMyhUfRXO0gT461YGY+YxBteZTrukQLMMQmAYYUmCaIurr/SAMq1YARBDe5PuKuqOo1jxStiSTMehut9jYl2SwN0lHwaItZ9Cet3j7/Rn+5v9dD3wb4xt9IXSQRSFj8K2v99Pfk2Ri2mG66DIx7TIyWuXjkSqjkw6lkkel5pG0JZYpkFK72q1WYVh1AiAFIKDuKOqOR8KS9PfY7N6aYfNAio0DSbJpY8Ezl65UOHJ8hktXKqSSesDlpw2DpXBAwJwqUQjm1P3hY9Ns6KvyyI4c2zamgwfyABTLHh+PVPlouML7F0pcHatRr+p3SFgCFKsuvlL82//6waroktTjQ7Xm4/mwrtNi344cj+7M0b/OjsLRQfPyg0tlTp0v8v75IhPTLq6n12XLFLiewvd1MKtSas5eCJ6f/+/5iD5XwXrP3BfDeLq6o0hYgoQl2dBn88iOHLu3ZujuSCxoy/UUI6M13j09y/Gzs1wbdzCl9soVrB5BuOcCEIYsl2s6u8hDG9P8s/0Fdg1lSKcWzvSJaYdTHxR569QMw9drFMsedkJzRinNwFzGIJcxSSUlmZRBNm1QyM59lrQlCUvq9drQSS20TaHVdN3xqdZ8KlWf2ZLL1KxLqeJTqniUKx7lqsdM0cP1wmcUhZzFjs263zs2pzHNhZurcsXjVxdK/NN705z/pAxAapUIwj0TgNCwq9Q8PA92DKX50uMd7NySuem712/U+cXbk7x3ZparN+oIoJAzac+b5DMm63ttBtYl6WyzaMuZFHIGSdu4mWiDKFc8Zkse00WXG5MOV65XuXytxo0ph/Eph2LFY8tgis/tL/DE/gK5zM0r7NmLJX76xiRnL5aQElK2cU8NxnsiAFJqNV2uegwNpnj2yU72PJQF9Gw0ArUwMlrj5X+a4I3j03ieoqOgZ9qWwSQD62zW9ydJ34HRC+Ib59kDd9okLBiMeVyRd0i4Uyx7XLle5cponZPnZjl3qULKFhzYW+DLT3ZSyJpRf8J23j9f5KVfjvPRcIVU0sAyBN49UAcrLgBSQqnikU2bPPu5Tp462I4QAbOEiDKT/P3PxnjzxAy5jMFju3Ls2ZZh64YMqeRC9RrySAULdpgypRlbwYW05p9JLPxeqeJx4uws75wucnWsxv6dOf75Z9vpKFjAnCAoBb94e5KfvDZOseSSSRv4K5xna0UFIIxD3P1QlkO/0RMNiOsqTFMHK778+g0OH5uitzPB07/WzvZNaVLJhbM8FJbVciKnkzYBqJs0xcSUw5snZ7g0UtH2zaNtpGy5IFHD+JROxXP6QnFBcqeVwIoJgJSCYtnjiX0F/vh3eoGFKvHCJ2VeeX2CbMbg6YPtbOhLRs/6PiAWl/ZsNUABylcLMqc5ruLE2VlGxmrs2JzhoU16CxmeYAL8nx9d48jxabJpY8XC81fkHECgXzSdlDz7+U5gbq13XMU7v5phZLTGbz/dFTE+ZLpgYUqT+wECEDLMokaUTu8zu/O4nuLcR2VOnJ1l26Y06aQRTYRnP9/J8bOzeJ6KtsXNxooMrZSCctXjwJ48XW1W9MKVmse5j0r0dFp89Us9bOhLBnt3zXSd7Ggletg8CDEnwL7SeXse3pph28Y0V0drTM24SKlPPLvaLA7syVOuenc0OuPEigiA6ynSSYMvHGjXH0QXObBjc4Ytg+lopjwITL8dQp76CtIpg6ENaYzA+g+N1y8caCedNFYsN1PTBSCc6bu3ZejrSuCHx7RAOmlgmiIIVHhwGf9pzJ/cuYyBIbWt4CtFX1eC3dsyVGorowWaLgAqUHtPhbP/Fnb7WmH83aEH4qkD7ZjGykRrNVUApIRKzWNofZpNA8lIxbdwa+jsXYpNA0m2bkgHWqDJNJvbvLbmD+7NR9eiLdwZ2gAWHNiTX5FDoaYKgOMqOtss9u/MAXNboxZuj3CM9u/M0dlm4bjNnTRNEwDDEFSqPvt35kgFDhot9t8doZtbypbs35mjUvWjg6JmoGkC4Hk6OeH+nfqSp6X9F49wrPbvzJK0ZVPzNjZFAIQAx1EM9NhsGUxpQi31v2iEY7VlMMVAj43jqKbtlJoiAFIIqo7PYw/rtX+lb7geBIRj9tjDOaqOrxM6NgGxC0DoQJnPGOwaykSftbA0hGO2ayhDPqNPBpsxjvELANpvbnBdkr5uOzrla2FpCGMQ+rpt+nts6m5zjOj4l4BAA+zbERh/sRNYOwjHbv+OLK6rmuL8ELsA+ApSScmOwLevNfmXj3Dsdg7p3UAzXARiFQApBdWaz8b+JD0d2tunpf6Xj3DsejosNg0kqdb82HdT8WsAX7F5IBndcbfQGELfic0DSfwmnAfEKgBKKUxDsGebXv9Fk6e/Dspc2UOmlaYZjuGebdng6jxewrEKgOsp2vMW/evsu3+5ASilZ0YY/RXKme83z7/+XtCcj/6eBG35+Ku5xCYAUgpqNZ+hDamgwGTzXLO1m5X2pCmWPUplL1KV4fapWTT9FaIZImw7aRsMrU/HbgfE5xQq9A5gQ6926gxj8uLCfK+hketVjhyf4ZOrVaaKDhJBIWeyvjfJZ/flGVwX9IHGdiELaI7WOHJ8mk9GKkwVXU0zH9Dcm2ewNx6at4KvFIYQbOxL8sZ707FOrNgEwHMV2bTB1g367L8ZzFcKfvjqGL94a5Ja3cc0dDw+wI0ph3OXyvzy3SmePtjOV57uRkqWrYnC53xf8cNXb3D47dvQ/KjMa+9M8dSBdr7y610IKWLXfuFYblmfJJM2cN34TgVjEYDo+DdrRut/XB0MjS7PU/z1D6/y1ikdLWRnTB13H3zPMgRC6GXhx4dvcGOyzp/+Xr9W0cul6Sv++u+vcvTkDPnsnWm+9EtN8/mv9UfRyHEh1PgDPUnSKclsyQtK/MTQduNNaJXneor16xIYMmZftsBF/B9+PsbRUzO05bXMelH4d2CgBQwD6GizOHpihh+9OragSOJSaf7o52McPTlNR+HuNDvbLI6eaoDm3bqkwDQFG3ptfS8QU7vxCIAUOI5iy3od7RLXViVUpZ9crXL47SkKWWNRVrDrKtryFj9/a5LLV6tzsYeLoqnV66UrVX5+dJJCzlyUi7brKtpyFq8eneSTkaXRXGy/ALasT+vr4ZgMwVgEQPnaA6i3K3H3Ly+tZQBef2eKurM061cGy9LhY1P6gyWuSa+/N4XjqiVdw87RnAxIxr8N6u1KYBgCFdMVe8MCEOXPyRr0dCaCzxp/cRW0U6v7nLlYCgIqFz+jfKWwLcnZj0q4rlqUN3JE0/E582EpOH9fDs1K7Ne34Zj2dCYoZOO7Ho5FA7ieTy5r0tUWCkAMjQbjPj3rMl30onDqRT+u5u4mRifq0WeLoTk57VIse0u2Z0KatZrH9Ru1xdFcJMIx7WpLkMuauF48KiAGDaDDutuy5k2lyeNAsewt+1kh9O6hVNFtLLZrpbK7bMbplDNQrvhLorkY+IFx2pY18f14NG0MGkBvi9b3Nuf412zQIzYMMl0STbPRbZyKAjqacRuyvtcOBKtx8YpBAPTxaH9PcwQgnzWjg5elQKCtcMOQdLUnos8Wg0LO0hcvy6GpwDQlHW3WEp9ePPp77MAeWhUaQKu9MNtHXAi1Wz5rsqHXpub4S5vJgXHa1WZRyJkL2rwrzYzJwDobx1liQS0BruvT02HRnm+eP0RHwYqt3YYEIJxlmaRBJkjeGOf76ssW2LcjS72+tL2vlIKao3hifyFqayk0H92Vo1a/OeXLXWnWFb+2d2k0F4uwJ5m0QSZILNHoeDemAYQ+ACnkzJuyd8aBsJ7h4/va2NBnU6l6iypyaRiCcsVjQ6/NY7tyUZ28JdHcW2Bjf0BzEa+mI6E8NvTbHNi9NJpLRTZt6AOqGPwEG9YAnq/IpA3SyfitHj1+Cjsh+cZv9QV7dHXHUCnD0GcHhhT84W/1kkoaS0ogHdG059GsL46mlII//u2+JdNcNIL20klJJm3oxBINNtmgBhB4PqSSRjRzYn/noN3Ng0n+4l8OkExIZopudEys07bP3cnPFF1sS/IXvz/AlsHUskLSQ5qbBjRNe5E0//xfDLCxv3lh8IK5qp+ppIHn07CUNXQbKNCbwGSQrjW8t44b4bn6rqEM/+75Dfz48Djvny9SrfvUHb0NTZiCpC357CMFnvt8J90dCb1vXmZ3NE0dmPHvn9/AS4dvcPJ8iWrNx3G1F1DCCmjuLfDcFxqnuRiEY5xMSBSNa4CGBEAFP7Kp5qcaCk8Cu9sT/Mnv9jE163LxcoXr43UU0N1uMbQ+Fe1G4piFoT9BV3uCP/ndfiamHS58XGZ82g36YrF1Yyqy+FcyAUY2JUE1fhLQsD+AFJDLxr8DuBXmu1615Uwe3ZW76TufzuIZJ82OgsXBwMJvJs079if4fy5rxCJsjWkApbdm2VTjfiWL9aIJv6Pv5OecM7SzpmgKE5pBs1GvoWzKDLyPGtMBDXNOoHPg61+W/0bhTFuKtd5st/Nm0YzczZazZAT0w7oDjSKWxTs0ApflegVcGa0xOe1EhteDCu1arnk4fK1KqewuuY1wjJMJGcua27gACJadwiTYctPVZnH42DS/ulCKLlEetIwivq+irKG/PDbFJ1erZNPmst8zrrQxjV8H03hn7ITkS4+385PXxnnxH0fnvIC59xU1GkV4HCylYKbk8r/+bpgrozUe39cGLH/VjKtEXiy3gY2kOA/X/kza4F/94QAfXCrzn//HRc58WNKJooO3XKkInDgQRhHBXDDJ4WOT/Kf/dpFc2uQPvrwOxPKZrxQkEpI41oAGjUCB5/scPzPLpv5ktL4tuZVACFK2wX/81ka++4Or/JfvfsxnHs7zxc+2s3MoE13KKDUXfLGaIo8/3S8hBPW6z7tnZvnZm5Oc/6TMN57r5UtPdDS0AwgTaR8/Mxt4JEsaOQ1oeBuYsiU/PTLBlsEUe7dnFxRCWApCIZBS8O2v9/PQxhR/+5PrHD8zy57tWQ7uybN7a4Z81ozk3g8c+JtZJeRWUNGPua2wEHPzcWS0xqnzRd48PsOFyxX6uhP8h29uZOeWzIIaCUtFOLYnzxX56ZGJKP1eI2i4YIR2u9Id+zd/NMim/tSyhQDmBlcIuHajzvf/cZR3Ts+ilGJgnc32TWn2PJRjY78dncDNR3QFOy84oxHBUPMYrdAJsG7V3shojYuXK5z4oMilK1VGx+ukkgZPPlrg977YTTplNDTzwzG9NFLhv//NML4PhtG4sRxLxRAZeNJm0wb/+g8G6V9nNyQEwILn3z09y0+PTPDhcEWXizUEPZ0J+roTbBlMsXVjmu52i3x2cQrttoMmFreqOo7PTMljZLTG2Y/KXBmtMXK9xuSsGxXGeHgowzNPdkZp8hq5IwjH4vK1Kv/zb69QKnvY1tI8lm+H2ErGhN6wmbTJnx3qZ/NgCs9vLP///CNWpeC9M7O8dXKG8x+XmSm5+lbO0K5bhaxJf0+CzrYEXe0W6zosOgNvoKRtYMil5Sr0PBVFH09MOdyYchidcJiYdhgdrzMyVqfu+AigWvdJWIK2nMXubRkO7slHVUV9tXx7JYw+MiR8NFzhOy+MUCq72HZ8JWVirRkkpc4QJqXgG8+t4zO7dUnVRm/IPv381WCNPXxsKgiX1stQzfF1DIAEy5AYhkAa+tAkmzLIZQxSSUnClIEVHd5o6qWjFtwuFoMikbMlD8dTWhg8FRWPTli6LrAhBXXXZ/umNI/uyrFzSybSQqFRuOxZP++dj70/w/996Tq+r6uWxnlYFmvNIN/XV6SuB9/7wVUuXany3FNdgbGiv7OcmTB/KwjQ12MzPFqjVNG+++HuI52UCObKuSulo5ZCZl4ZUyifqKTsfISWuxCanpQi0F66wqhlCtLJhW37SguGr1joBiaCZ5cxhmG3pIBKzeelX9zg1aOT2LaMnfkQswaIGg3evFj2WN9r85Vf72b3trmcwUotzxIOLehj78/wly+OkEkZ0ZXtHfsT/BDzf5n3t7nH1YIr1sUssVLC1KzHwd05vn1oIKiIsrx3m3+x9P75Iv/w6hiXr9Uid7tmnIM0tWycIQXVuo/vKx7ZnuWLj3ewOTCKYC7KNkzCcCeEzD95rsh3XrhCIiGbEoW7HBhSMDXr8txTnXzl6e5FGcC3e/eLlyv87M1JTpybRUrt+NHMiqJNLRvn+QrbEigE750tcup8iV1DGZ7YV2D3tkyUXgXm9vTzt28htCEkuPBxmf/9wxFMc/UwH/R7FnImL782Tnd7gif2FSIDeD70Fndupofv7nmKU+eLHD05w68u6FjGdEpGPpfNRNPrBob9z6QMlK84eU6XfO/uSLDnoSw7t6QZ7LHJZc3bqgFDwPD1Kt95cSSwM1bfraE+FDP4u59cp6vN5KFNNxfB1quPfseZosuV0RpnLpY59UGRsYm6riaWlNgJHQi7EvJ9D2oHayeGuqN0yLcQOpCiYNHfnWB9b5KuDotM2sSUgoQlmC66fPf7I4xPu0uOEl5JCKGrpGRSBn92qJ/2vEXdUTieT6nscWPCYfh6lZGxOhPTdcYm3Cii2LJEEGe5su92T8vHh0e49WD7Fh2xBurRtiSppKRW93EcRSIRvxUcN6SAuquwTEHCklRrPjXH18tV+G7o+MOEpQ2FcFdxL7AipWNvhXA3AASDJYhs8mAwfKW3cEIIrCZsgZoBX+n38X2oBBVA05HHVPhDLbgxvJe4ZwIwH6FFfKtbLSOon7daDL7FILTuQ0/miM+3ecd7iVVflvl+YvyncT/0fdULQAvNRUsA1jhaArDG0RKANY6WAKxxtARgjaMlAGsc0jKX79Pfwv0LpcAyJTJpiyhBcgtrA9rHUpG0BbKzYBJT1tEW7iN4PnQWTGRne2LJWbFbuL8hhcBxFZ3tCeRATxIhVsb5oIXVAQUIoRjoSSK3b0qRSens0y0l8OBDCJ3dPZMy2b4pheztthlcl9RVKO5171poOgTgBNXde7ttfQ7wxL58EPTQEoEHHSJY/5/Yp4N2pFKwd3uWwXU2lVprGXiQIQRUaz6DvTZ7t2d1NLZSOkPHs0924rh+azfwAEMKQd1VfPnJTuwgqYfUVT4Ujz2c57FdeR10GVP+mRZWDwxDp6h5bFeOR3fldQSTDO4CROCqeug3e+hss5pSp76Fe4ewdlJnm8Wh3+wJkllo/moBCKJs2nImz3+1H9MQOEss09bC6oSUmpemIXj+q/205Uz8eYkqottAGeToG1qf4ltf7ycs2dZozZ4W7h3MII29EIJvfb2fofVB9pZ5LBXqU3HSnq8TElwcruhonCmXfMZAKXXfp2xbKwjD2mdKHp1tJt/8Wj9bgoQdny64cZMAwFxygskZhxdeGeW900UsK0hR3hKEVYuQ8dUgkmr/riyHnumhPW/dNknHLQUAFmaoeOvUNK+8PsHw9RqWJbBMGS0NSi2MqW9hZRDlPAgWc9dTOK4fnPLZPPO5Dg7uCZJW3CFDy20FABbm6KnXfY6fK/LGiWmGr+nsHCoIgzJk8zJ1t3AzwrA6zydKW5NJGQz22jz+SIF927MLknfeiS93FIAQN+XoGatx7lKFq6NVbkw6jE871GqKuttyLFgJJEyJbQs6CxZd7RZ9PUm2b0rR1z1Xu3GxeZn+P53eF+4XpmscAAAAAElFTkSuQmCC;flipH=0;flipV=0;" parent="1" vertex="1">
          <mxGeometry x="280" y="43" width="35" height="35" as="geometry" />
        </mxCell>
        <mxCell id="SQ3NC_S40KwjwUbllQxm-7" value="Slack" style="shape=image;verticalLabelPosition=bottom;labelBackgroundColor=none;verticalAlign=top;aspect=fixed;imageAspect=0;image=data:image/png,iVBORw0KGgoAAAANSUhEUgAAAIAAAACACAYAAADDPmHLAAAbhUlEQVR4nO2deZBcx33fP93vzZuZ3Z2dvbALLK5dADxBSwQgkhApiZItR4loHQmtIw6l0IliyYyPOIlKksuyItuKJFOR46RKSSW0ZZpxaItFp2hakWhJkUuWSIDEQYoUIZHYAwvsAljsfcz1Xnfnj35vdpZYYI+Z2Z2F51s1tbVvZvr169+3f/3r39EjjDGGZWCMQQiBUgqtNadPn6apqYkjR45w6NAh2tvbaW5uRgixXFN1VADGGGZmZhgfH+f48eMcPnyYubk59u3bh5QSx3GKMlsO4moE0FojpQTg7NmzjIyM0NPTg+M4dHR0VO6J6igbY2NjKKUYHByku7ubnTt3AotluBSuSgCAubk5Tp48SW9vL9u3b1/EKqUUUsr6zN8gGGPQWuM4zqJrw8PDDAwMcODAAZqamq7axpIE0FojhODZZ59l9+7dNDc309DQsOgmdaHXFl4rk0wmw8zMDGfOnOH222/HGLOkJriMAFFDAwMDaK3Zu3fvkjeoo3ZRKqu+vj6klPT29i4pw0UEiD4wNjZGLBYjnU7XBb+JEcluenoa3/fp6Oi4TJ7ytR8eHBzEcZy68K8BCCEwxpBOp3Ech8HBweK1CBIW1vxjx46hlKK1tbUu/GsEkcBbW1tRSnHs2DGEEGit7ftaawPW2s9ms3R2dtaFfw0ikuno6CjJZLK4O5BgWfLCCy+QTqeJ/q/j2kIk03Q6zQsvvFD8XxhjzMWLF1FK0d3dXZ/91zAi2Y6MjOA4Dl1dXcjIe9TV1VUX/jWOyB7o6upicHAQpRSu1pre3t5F3qQ6rl0IIXAch97eXusmHhoawvM8AJZwCtZxjSGSsed5DA0NIT3PI5VK1dX/3xNEy0AqlcLzPOTRo0eL4cPNCgNoA8rYv7oKj6KNQRuNMhptDIZNPF7G4DgOR48exT148CCwObd+kaClgKW6rw0gStydq4QxBo1BCokUwja2qH1LBEes9Q4bg0jWBw8exG1vb9/g7qweJnzJUB6ZwHAmo5hT4Aro8AQ7k07xfWXAWSW/ldE4QuKEQj83N8ZobgbfaNKxBDsa2mnykoBAY7D02FyTqL293XoCN9Ps12ZB8M9NBTw6kue5OUXG1zhGYAQYAVvjkns6Yryny6M7IQmVwQrvYZBCcCk/y2NDx3ji/A8Zy85gVIGC0SQdD+N63J7ewQd7DvOWLdct+t5mQaD18gkhtQSNVedTBcOnT2d5aqxAXIArBDFp3zPYGR8YQ1bDlpjg13uSvG+bt4g8V0I08//PuRP8zstf52x2kg4njiMdXCERCBQapTXz2idjNP9k2+v54uvvpcVrsEvGJtIEm4YAxth1fiir+ejL85yeV3TGhF0OzMKyEA29wArbN3DJ13xsR4JP7E2iw3aWEpEyBkcIvvSTb/Pgj79Bh5ukwY0RGI0dpdKhEjjCKv3z+Vl2N2/lz267n96mLZtqR7UprBeDVeszgeGBl+cZmFds9QRBZPmzIJqICBoIwrW/25N85Wyeh87lkAKWonwk/EeHnuXzp77OjngKz3HIa1U09kxJ+wZDYDQFo9meSDM8O8r9xx5hOsjZZWhdRqZ8bA4CGNvR/zSQ5YXZgE5PkNcr+260PdzmCf5wMM+pOYUQi7eKdu2G07Oj/NaLT7Aj3oQyBm3MsspcADkd0Blv4vT0MA+e+iYSsWm21TVPgGjdHswovnHJp9uTFPTKDTqws9EREGjD/xrO2++WNiCsBf/Vge9TUAVc6aBXMYcF4GtFh9fIX549Tt/sKFII9CYgQc0TIBrCb475XPINsTWqV2WgyRF8e9JnoqCLBqMx1mibys/xV+dfosVNoLRetRlnAE86jBfm+fqFlwBWRaKNQs0ToHTL1+yAWmM7BnAkZH3Dc9MBEHoNQyGdmDhD4OeQZTh1Aq1Ju3Geu/QqwKZwENV8DwXWoHs1r3ERSxpwK4ULzCjDmbxtJDLmAE5lJxgPMnhSrnneGiAmJD/KjBOY1WuRjUBNEyASRE4Z1Go8OVeFIFjEIttowSiWN/lWhsBocsoHan83UNMEiMThyeo7WStttW+G2Q81TgCwM8gVsNuT5Fdp/dexPGqeANF+/U1tLrPK4NYZUFHUPAEij+o7OjyaY4KCqWuBSqLmCSCxe/g9DZL3dXmM+YaYrH3jarOg5gkA1hegDfzG7gQHUw6TviG+KXpe+9gUwyiwS0EqJvjyTY3sTEiG8wZHQKy+HpSFTUEACB1CBnYmJX/6+ibu6YgxHRgu+gYdvr/SV335WIC70R1YDaSwXsEtnuS/7m/kBxMBT4zm+f5UwLRi2eBLTMCcNtQrIBawqQgAC1k/BrirzeWuNpe5wHA2q8koU3x/ye8KyCtDT4OlgMPaYwvXCjYdAWBBlaswu6fJFdyUWv28FvX1YH0JUOmxjiKFUVrYSnGllLBaQMVCHitEVQmgzUIyBlT3wV6bgvfae9cqXltbEHXXFrtoBKKqmcZVIUBUqVM6+MpATlcq3nbl+7pCEJev0Q7U3nbHYFPOrOBtZ5Ux5FSBuBPDFbJICmU0Uoiq1B1UnACRCnME9M0rvjXuc2wy4JW8JqjyehvlDnTHBLenrYH4ptZY0V6oFW1gMIgwq/jUzHn+5sIpjl16hZeyEyhjcIVgf7KN27Zczz/aejPXNW+136tCtnFFCRDl780pw+/3Z3nqks+or2l2BO46pkn3+5qTc4o/Hs7zxhaX/7CvgZ4GWawr2EhExSOzfo7P/fgb/NW5E4zl52mLJYpVSAo4mpvlqUuv8N9Pf5d/vOMgn7z5naTceMWLTypGgEj4ZzKKB05l+OFsQLcn2eFJArPOxrYQdDv2nkenA+59fpYvXZ/kbR3ehmqCSHhD8+N87LmHOTk9TKfXyO5kGt/oRYPkCUjHEhS04uGB7/N3E/38yaEPsye1paIkqMiEiIo2xgqaX355nv55RW/C1scUSvL21/PlG1sX0O7aNLIHTmV4birACZ1J643ISTWem+Ujz36VV2YvsCORBiCvFaZYe2CK9kFeKwTQnWjmzOwFPnzsYcbz8whRuQSWihBAAxj4ndNZXpnXdMQEucWE3jAUDCSlnVGffDXDpG+KtsJ6QwrBb770BC/OjNDqNZLXNjn1SnM5clPktKLLSzEwc57PvvQEwlSu/2UTILL2j08HfHPMp8urrZi9wGqCZlfQn9F87bytC1jPlP3Iin/60mmeOv8i2+LNFMLZvRJExSfb4ikePXeCp8f7cYRAmfJpUDGb6NHzeeIbpF5XAl9Dqyt48pKPr20kcX04sGC5P3HuOKyg2mgpRNqgQUgeHTwSXit/mpVFAIM1/OYDw7OzCleWl7ZdTUS5hWN5xcszNgJQjZNEloJEMK8KfHfsNCk3TrDGmauModGJ8czUEHN+FinKH+/yCBDefCijyYRVO7WMmIAxH17MWAKsh/yjMRqcvcT5wjxOmda7FBIRFDg3N27bL/MpytYAYPf9juGqkbhagMDuDmZUdXtZKuJIQBk/B2UXixhcIcmqAtNBblH7a0VZBIgeJtparXcgY61Y7Acw4bXKhQYV4EobnSyeV1ChfbvB4AlJTCxuf60ojwDh3bd4EhxBUGZnqg0FtDiw0yt9bPsQe+NpWpw4QZnxCoVhdzyFJyMfWyWnhLAlZ65HZyIVXilzSSmvO3bO7GiQdMcFSpslT+uqBQgg0Dav8GCzFY4DRffrodbdiFgCZdaeIhITkimV5462PWEKW4WXGgFKK5q9Rrob26zGLdemKLdPOtzz39MRY0rVboaJFJDRhtc1uWyNDo0S4cGJGLY1tnG4ZRdzqrDmCmGFIS4c3r71JqD89bkUBoghGQ/yvHvrTyGFRNeCH0CE++n3b4vTHRdk9PIHMa03BITLu+Bf7ohflkASzdQH9r2VgLWdDRATDhOFDG/ZcgOH2/eUhHorAykEOe2zJZHin+6+PbS3NtgPEDWggdaY4FN7kkwEdg2tlR2BADwJI77mvm6PQy3uZaeFOUKijeFwx17u67mLM7lp4nJluswAnpDM6wKxWJzP7n93qEEq9/QCQUwIRgrzfObmn2NrMl2xgFBFKOpgSfCuTo+P9yY4XzAEWP/7RimDKCdBCDiTM9zT4fHvexJXPCrOnhtk+OzN93DPtlvoz07iCol7hVls8xIFCekyHeTJGcP/PPALJdG68oY26qIbkqkvO8Wv7PtpPrDrtlC7VGZkK3pMXBRqffR8gd/vzzAdWPerJ1m3VGwBBFj/fybc79/XHefjvUlcefWtapSoEeiAT7/0JH925hlcBE2OF54TaL9pDPhG4WvFZJClN9XFl193L4c79l02M6P/j48N8L5nH2KL463IXe4bjdKK2aCA58T4levfzq9d97aK5wNU/JzAaIYNZRV/dC7PtyYCJguanDIVO4DhajAYWhxBKiZ4XZPLR3bGOZheuWlaSpAjY3185fTfcmRqCOPnmFJ5DIKkkCTdBFuSzXxw+yE+3Hsnaa+heMhkKSKBPTP6Knf/3X+m9SoEiHZVAuhwkxDz+AdbbuCj+97KTc3bquJnqcpBkaVqNqsMRyYDXslp1DoEChwh2BkTHGh22ZaMcurCA6VX2IaNx1NUsyOZCY5PnKE/P0NgNG2Ox62pbva37sRzLLmuNDMjoV3ITvHo8MmrWgZRmDouHPY3tPG6tt20x1PhM1xOrkqgaieFlp7kvVGIrP219kEb+3N6V7O2q5mwaftgB7JamcFVPyo2yhBezx2BYHUzfjlEGTqmRAnLVaZrG8yqNKB9huoRq3ifqp8VbAxos6oUJuHIpX8AYMn2AaMxpbFdAUKuoo1l72FYfCBtlVH0Ui2kjFcL1SOADmt2q7UGhMTCucq6qI393NU+c9V76JBEG7mOhSZjlc4crA4BlC4OupqYJnf8JwQ/GoHCVcJFkQnsCJo+9DaczraFbNPXQmsIfwrdFHxyz7+C//wgZjoLjsTp6SB+x43Etncu9OdKPyuyJEwofLt5VfPnCSaOoXP9UEasYEUQAoSH07CfWOftCLch7JIq9qeSqLzrXgOOpHDqDFN/+Di577yAnsmgp+aX16DCYAoB3p03kLwSAUJyqek5Zh/6v8w98l2C4Ql0Zh58KxzRmES2JIm/4Xpa/u29JN54i/3uivdRAoSDf+lZsq98BX/yBMbPYYLJ1Y3FqrGwERSxFmQ8hdf1dpLXfwynqTckZWU1QQU1gAk9QZKpP3icqc//OSbnI5qTCNdBxFbAXgFm2qfr679N4g03LprpQPH/7A9+yNi//gr+y2eRbU2IuGvbjxw1SoMfYGZzGKVp/tV30fa7v4iQju3nFTWBHXyjAzIvfpZs/yOARDiNIF0Q6xjqMj7oAO1PIL1WGm/+BIm9H664JqjcE4Uzf/y3/4ipLzyGu60D2ZzEBBqMndnLQoDxg6VTdkPhZ759jNH3fwEccHu22M9rg/Ffo5odB9GeQhjD9IOPE5y7ROcff9wah7AECay9YHTA7LO/RH74SWRid/iWsrPPFFY7KuVBuMhEN6gCcyf/HdqfoOHGf1NRTVCZVsI1dvbhbzH9xceJ7eoKhakqk38dCr9w+hyj938ZEXcQ6QZMzr9yZqcxECjQGqe3i/k//x4Tn3nYapSlvhMOaual3yV/7klkci+YwL42LKxlQBdAOojELuZf+jz5c39thV8hW6R8AoRuv+D8GBO/9TBORwtGVUjwRQgwhslPfRUzNQdNcSiola3nBij4ODu2MPNfniD79EuWBKrEIRsK3790lFz/w8jkLtC5Cva/HIhwJ6ARsQ7mX/qP6PxkqAFqIB8gMtRmH/kOanQKGmKVzbcOtUvumZfJfOd5ZGd65cIv9pHQs+Iw/QePL3iKIoRbvewr/42aPUHIaISTRM+fIXfmcaJJUS7KI0BYGGC0JvP408iWBqt2K4lQTplvHoP5/Nr39Eojm5Pkn3kVf3g0zGQJ/QQI1Px5/MkT1uCrQKZNdaDAaaJw7vFw4pU/f8tswc7+YHgUNT6LcKvgrAiNtuzfvohIJ9dOMGMQroOez5A/+mN7TWmiY6KC8eNoP7e+lv5qYQxCuujcKCpzgUpogTI1gL25ujCBzmbAcapSdGfyPvrcOGWfEetKzHwWNTBm2y1NC8v3QTBpt3s1kct0BQgX7WfR2QvhhQ0lQPjHV9bir4jvvaSNkvbt0lyh9iMDcFEFx0Za+6tB6OvQ0ZZ0IwkQDqBsaUQ2JsOBLUNIxiCkxEk3he2LhftUWTbCaQeRqOH1P4JGCIl0U+H/G5kWHgoo1rMNp6HBbv/KqqowyM4G3B2hD39dYjD2Jk76VoTXYj1wtVzfpH1kPIWTCp1UG04ArZENSbw7r8NkCotdt6tBzEVPzpN4808hGuJhNHEdEFrSbtt+nEQ7RtdwfZOQGJXDabsDEWssiVauHRXwA9g/qX/+DijotfdHaxsJ/IW3lrS7HjNRgFEIGSO+6/3gT4L0qD17wGDFVSDZ84GSa+WhfAI4EqM0iTftp/EDbyIYmYB4bOW7AQPEY6jzUzT+/JtJ3n1rSIZ1PM8rLAxN7rkPJ7XHRv1EjNohgQGZwOTP421/L7GOwxULClVklIUUCAPtX/olvFt2o0enEAlvefUkBCIRQ1+YwrtxJ+1f/MhCIsm6QloD1EvTeOBLdnB1FoS3zv1YCgJkEpO/iNO8j6bXfyYcnloKBoX1YU5Hmq7HPo13wy6CobFwUN2FZIzoJYW9bgzq7Djezbvo+stP42xpoapZRFd9Bhtg8TrfSPPtD4FQmMK4nWUiZvu1ni8hi0uRzg7hpq+j+fCfIBOdV06UWQMqWbwG2hDbvZVt3/oizb/6LggUwbkxG5cv+Auv+TzB8DgmF9D8sZ9j27e/QKx3G1cs21kvCFvj5HX/NOm3PoXX9WZMYRyTP4/RedD+ur1MMIvOngU0yX2/SPruJ3BSlU8KqazfMySBbE7S8eBHaf7IPyTz1DGy/+951E/OYwJj4/i37CD5lltp+JmDePujmPsGC78IqwncVA/Nd/0p/ujT5C98l2D8OZsSti5OCRen4Va8rXfibX0HbvM+e71C/v9SVN7xLUUxYdO7YTfeDbtp+bV7bdJGvoDwYosNvFXn660DhBPONIh13kms8057XecxKqiuiWJAuPHFMQmjrOCrMEbViXwIEZ4bE54WKe3x3SIZt+8b7HuC9bX2V4NophnFwpocR8j4OnUgTEwN8xOrheqGvl7rFIri8jUpeHOFrWs464ou4vAhqqqxIkOw+rkJ6xv7rCEtfznWIFQTFousg6CqhRoOfq8Twi2VzlwkmDuDkFdzYglsalYDTtNOhBsGrWqhgGSNqBPAHupG/tyjzD7/GWRyp92KXRECIfKIWAexLXcT3/EuvK13h+/Vwi8SrA51AhShEMJDyCTLH2eRwPg5ckN/Qf7sY3jd76Tp1s8h421VKd6oJjZPT6uOVWaZCon0uhCxdvLn/prp730QNXc29CjWSgxhedQJUA6MD0YhE1tRc6eZPfqv0IVZrryjqD3UCVAJ6ALCayOYepHsqQepVM7+eqBOgEpBBwivneyZr6Fm+xe8iTWOOgEqBmOjd4UZ8iNPLVyrcdQJUEkYDW4j/sUf2P83wW6g9nu4mWA0CA+V+RHWv1D7jqHNQYBKW9RLNleZewgAozBBVFxa28tAbRMgKgtIxhFueLhDBdoU8dD/ZUqalHEqlSMrhItwoqhhbWuB2iYA2LQyR+LcuA3yZdQdhOcVyJZGnFu220tSFNdp2bAf4TYv4wZeyU3yiIabqOkawxLUPgHCMq7kW25Fz2RDTbAWCAgUsilF4jZ7nr8NSYfFLe23IuON5R28IF1MMI/XFSaQVPtAqQqg9gkQpok1vucO5JYme9TMGmLxwpWoqTka3vsGW3oWnWEgbIRPxluJdf0sOphdY4GoAF1AxtuJd79z4VqNYxMQwJ7mEdu7g6Z/9jOoi9PgOauTjxSYQoDT1ETzL787NCpLGgjPlE3uuR8hNGjF6obG+gB0fpT4zvdWJXmzWqj9HkIx2bTtN+8jfmAvenQakYgt/z2DVfNSoi5O0vbgv8DbtyPMPi559NB167bup/GWT6JzZ+0avtJfEpMJTP4isdb9NO7/BFB+ydZ6YXMQQAhbLtDSQOdffAp3z1aC4XFrD7iypOaA8BXWHsRdTM5HnR2n9ffuJ/Whn110iOXie0gwmuR1D9Bww69bEhhlvXvFI1tL8/ZFsWbA5IZxUrtJ3fEQIpYCs3mSQ6p/VnAlEdYNqIlpxn/jfzD/te+DJxENniWDDH+qxVcYpdCzOWI7umj93Idoet/dVxZ+KcKSq9zA/2b+R19A5y8hnDRCumHql7UZjPZB5zCmQGL7e2i89fdsPsAmSwoRWmtTqR81XBeUFI9kv/cis4/8DYUjPyGYy2Lmc4iYRDY04Xa30PDzbyL1wbfZiqNVFZ3YxE+dGSY7+BiFkSfR+QmMnwMh7RHy8Wbc1ttI9r6f2Ja7wq9tjnU/QqA1YmpqyqTTaYxZ+JXrmocxxQOqAPTcPP6Zi+jpeYg5uNvaie3oWvj8Smb+ZfcoKb40EMwNYXKXMCZAuimcVA8iFp3ju7lyAiNZT09PI/r6+syePXs2FwEiREe9LCXc6DTxcopOlsv6rfJJ3tVCJOv+/n7kiRMnihc3HRxpX8bYQhMVvnRYPLma3x1YCkKWaAEdvlQJMeSmEz4syPrEiROIoaEh093djZRy82mAOtYEYwxaa0ZGRpCFQoHZ2Vn7E6qbUQvUsSpE6n92dpZCoYDctWsXhYI9cqyuAa59RDIuFArs2rULKaVkYGAApVRdA/w9gDEGpRQDAwN22TfGmIsXL6KUoru7e3PuBupYESLZjoyM4DgOXV1dSGMMXV1d9Pf3k8/n68K/hiGEIJ/P09/fT1dXlyWE1jYuOjc3RzabpbOzs64FrkFEMh0dHSWZTNLUZAtbZWT9p1IphoaG6Ovrq+8IrjFEwu/r62NoaIhUKlW8VgwGRRcGBwdJp9O0trbWNcE1gEiGk5OTTE9P09PTs0iui6KB0RtjY2PEYjE2XYygjkUo9fn7vk9HR8dl8rwsHBx9YGBgAK01e/fuXXS9jtpHqaz6+vqQUtLb27ukDC9zZAsh0FrT09PD2NgYFy5cIJPJLPpi3T6oPZTKRAhBJpPhwoULjI2N0dPTg9Z6yQm8bELI3NwcJ0+epLe3l+3bty9qRClVjyFsICKfvuM4i64NDw8zMDDAgQMHitb+lXBVAmitkWHu3NmzZxkZGaGnpwfHcejo6KjQY9RRCYyNjaGUYnBwkO7ubnbu3AksluFSWFFKWLR2KKXQWnP69Gmampo4cuQIhw4dor29ncZUCnetvxVQx6oQaM387Czj4+McP36cw4cPMzc3x759+5BS4jjOim22/w+jue9XIAxI3QAAAABJRU5ErkJggg==;flipH=0;flipV=0;" parent="1" vertex="1">
          <mxGeometry x="210" y="43" width="35" height="35" as="geometry" />
        </mxCell>
        <mxCell id="SQ3NC_S40KwjwUbllQxm-8" value="Teams" style="shape=image;verticalLabelPosition=bottom;labelBackgroundColor=none;verticalAlign=top;aspect=fixed;imageAspect=0;image=data:image/png,iVBORw0KGgoAAAANSUhEUgAAAIAAAACACAYAAADDPmHLAAAPRklEQVR4nO2d228c133HP78z111yScrkirpYsiXqYlmqbMV24qRR7MRwktpJnSboDehD2zy0Ly3aPPXP6EufGiAIUBQBWvStRdVGcG3XrhvJtmxZ8a22dbFsiZIoiZfd2Z2Zc/pwdniRSIorUrvkznyAgYTZWe7s/L7nnN/5nd/5rVy7bgwFuUJrTamkOHHiJKrbN1PQXQoB5JxCADmnEEDOKQSQcwoB5JxCADmnEEDOKQSQcwoB5JxCADmnEEDOKQSQcwoB5JxCADmnEEDOKQSQcwoB5JxCADmnEEDOKQSQcwoB5JxCADmnEEDOKQSQcwoB5JxCADmnEEDOKQSQc9xu30C3MAYMIIDIwvPccq6XyaUAjAHHAc+DNAWt7SFicB3BcaHZzM51+27vLbkSgDGgFAQBXL+u+fhsk6tXE6amNXFi8D0olxU7tvmM7fYplYRm076vV4WQGwFkrb7RNLx+os4bb9WZntGzryEgCMYYTrwRUa06PHEk5OCBEM9TpGlviiAXAjAGPBcuXGzy0qs1zp6LcV3wvMUsas9dvZZy7Jc1Pj7b5FtH+xkedmnGoHpMBD0vgMz4l8YT/vXYNFcnUsJQrBO4THEcvyWODz6MaUQzvPC9Cv19iiRpvydYz0NIT08DszG/Fhn+/ZfTXJtICQNB6+WNn73XGAhD4dNzTY6/OLNip9AY0NrMGt5xsvMGs85KMvW0AABcF06+Wefi5zG+b43fDlpbEXzwfxFn3qvjOMuLJ/M1ymXBdSGONVEjJdWGIBCCQGavWw/07BBgDLgOXL2WcObXEY6zuj44TeH0mQZ7x0J8XxY1oDHg+3DzZsKpd67z1js3uHQ5ph41qPR77Bnr57FHN7F/7yCOw7pwLHtWAGBb4vkLMTemNO4dWu5y2FYtjF9JuXwl5sGdPnF8ewDJ9+D0mUn+6V/O8/5HU2ht8FyFiHDpcoP33p/kpVeu8JXHh/nRD7ZTHQloNOww1S16WgAIXJswpKkN8KwGpSBqaK5cTdn1wMLXjIEwgBNv3uDvf/Yx12/GlEIHEZkd8z0UKnRIU8Pxly5xabzJT/5i3107lmtFz/oASqDZNExOxWvSwkQgTmBmeqETobXB9+HCxYif/vwTbtyMKZecBY6gPQypNohAf5/H6Xcn+Pk/fIo2BpHuOQQ9KwDEVsSMGimYtWteWmMXEebhunDs+GXGx+uUSraVL0UmjL4+l7fenuD06Zt43uI+RSfoWQHYKaCiFLoggtzhWEkfLGKNnV1qYwzCxITmndPXCUIXre9sSTs9FGpRytunr5Gmq/22d09XfQCr+nsjfWPsYk85jGlE02DUIq3MxoDFgDgOrusv2RK1tsauVJzZOzbG4HrCxS9qXL8R4zrttGSDAJ99ERNFmiBQXVl86ooAsgCJ59FqgWv/GVpDKYT77/cwr0/TbGTNNvvHtnqjNRg7rrtembA0cNvfEiBtBYWqVTe73L4mcONGgzhO8bzFRLYMApOTTeJYE4bd6Yw7LoAsUJIkhrNn61yfrEObwZkVfQ7gKKjVNRAzOZXgKMnaPI5KSdMIz+/D9QIwEMc1XM/H80oLI3YCOjHcv81j84hD2mqpmYPX1+e1b/zWTfq+i3LW7nu3S8cFYKdT8I+/+IDXXr9EM07vqQNkDaUXRABFBCUJjfonuE6d4ep+Rqp7SNOYNI3xvNKCv2EDPMKjh0t4nsxO20SENIVqNcR1FM1Yt9WbGQMjwz6B58yuSHaajvY72ZTppZc/49+OnadWTxYkZNyLI03BGIXI3AGCNgGuv5NmnDB+6QxRNIlSt0eLlIJ6pHnkN0rs2e0vmLOLQJLAls0eY7v7qUcJqo3lQkcJDz9UIQwFrU037N9ZAdjACLz3wbWWk+agFPf8WByNSIjrVkjTiOmpK4hyW/c5Z+QoMjz8UMBTv1le1FvXGlxXeO47Wwl8Z0Urf0pBo6l5YGeZLz820hpSuhMJ6rjnYXPxBINprY5xz4+lsZN6pRSOo2YNpzXEsb2/x46EPP/tCq4ri3rpSkEUweFDgzz/nS3U6jFag1K3O7ci9nyjoQl84Q9//wHu2+QQx90LBK3bUPBaNIg7+RYiiiTR1GZq1Gox/U1rmMAXdmz3OPJIiX17AuDOCzdaww9fuB+lhGPHL1OrJ3iuskLAOqXNWJMkhh3byvzB7+7gkUMDRBFtDRtrzboVQKORYoztKe4GQfA8WfLhGgOiFM888wSlMCIMRxgYHGJ0tJ/RasjIsKJUsnH6lXTrWtsh7fd+tJOxsQFeeXWc9z+cYnomwWiD6yq2jIYcObyJp4+OsvP+kCgqVgMXIAJpatfN//zHBxka8jGmfefIAEqEF1++yCuvXcH3nQXTOjszMCjl8s2nD/Po4TK12tzYb8O1NjN4ftRvsfud/1qS2P88fmSIwwcHGb8ScW2iSRSlVCoeW0YDNg3ZYFOjaRARtLk9Nb2TrCsBZCiBo1+rMjjor+rvfHpukhf/e5xAlh4OlMrG5jnjZ1k87jJPZ75/Mfd+gXmZRGO7SuzdU0IAbSBNIGk5kq4jrURUSDW3LS93inUpAICp6SZ9fe4i3a8s8OznDGEWnEPsMLLYM7XXCzpNOH78TU6fdugrjzIwuAkRtzUbWHroEez0L05My3uPqdVqpKlZ4M1nq4Cz77sl6mlnQsLhQ0Ns3xYu6HE6xfoUgEB/v4/rtjNJuf3JBYGzpBmzANGx/zhJ3BxnxwNPUh3dh+sGBGHljrl78z9NRLhxs8GFC5ft8m4bdw3CaPUSP/7jXRw+NEij0VkRrCsBZKtkaQrHjn/BfUP+7NKqiM2ve/CBCoceHrS+gQj1SPPq/1whThKELN/O4PsOH3082VqgWdqYYejjeyFBYMO5jjJ4bnvLs8bAaHUQEc3nF8dRzsrDwkqEzz6v84t/Ps/Y7ocJfKejqWLrSgAwF1376c8+WHBeKWFqOuEH39vREoC9dnKywd/+3bvU6wnOLatxSlnPfPkkTtNK3Lg9JtEOaaopl0OU47SGghW+zxjKZYdz5+tcudrkwR2lji4PrzsBZIThwhUSpYRU25j8fESEUsl6+dliz3w6mWixms/qVkLIuhXArQ8kc6iWysadPTpzez1Dz2YEFayMQgA5pxBAzikEkHMKAeScQgA5pxBAzikEkHMKAeScQgA5pxBAztmQAihi/2vHul0MWoosby8rvLTKug+5Z0MJQIBmLNTqYIzgOFCLuGP2TsHSbBgBaG3wA4c33rrKT/7mNcDmAiSJptnUqEVyAQruzIYRANhs4ampJhMT0ew5EfD9Lm6vXSVZKnyl4hEEDiuoL7GmbCgBgM0MKpXmbvvWzNuNhogQx5rNIwGDFZekw6XjujILWMlOm+XQ2sweG9n489m3t0Jfn1pQfKITdLgHMDiOUB0pkSZmdt+cfaV9sj13ut3ynwAoEI0xDbqyMb9FmmoqFY8nvjQ025t1cqdwx4eANIGnvr6Fk298wdnzMyilVjGZtw+rXA7afmgiQlT7FJPMIIvUBegESgnTMwlPH93CnrGBVtHIzoqxowIQEZox7NxR4a//8gj/9fJnzNS03elzF89fRIiTlF/977vUaxGOUiv8M4JOrhHVL1Aqb1q18Y0xiFKkaYrWekVidBTUGyk7d/TxW98eRSm6Ui2s4z2AiN14ufvBCnt2H7jrZ5/5EcbAX330n5w8+Q6VShmdrmw40Ebj+xVAcL2QoDSA0Smo9h+JiJ2C1usNjDaoZaqFZaVl6lHK8H0+f/anY2zfFtJodLbrz+jaLMAWRVjdF9Y6pVJxGNszxqlTZ/GDCumKmpEQBGU8r4Tr9VEqDeI4/qocSmMM0zMNUm1w3HkbRZkzrDGGOLY/T7N3rMKf/NEu9u/rI4q6Y3zoogDW4guL2Np6Tzx+hDdPzeA5aoX1BATHcTBGo5TT2h2UIiK4btD2aGQMBIGwa6fPh02XmRlNmqaIElRrnm8A11FUqwFf+8ow3312O5uGnFaNgKJAxF2RbSPbvfs+qtUBbt6McJ2VOZXW227NgsXgOi5BUMFx/bZ8Artn0VAdcXjhud2cOz/Du7+e5ONPp4iizPAwPOyxb88Ahw4OsW1LgNa0qoPc3XdfKza4AIQ4Nmyu9vOlI2O8/OoFwsBtqyvPeoHK4PZWfcD2ppSC9Wn27fEZGnQoHxjg4IEBGk1DM7bXOMoQhgrXtYJtNu35bhsfNuhy8G0Y+OZTY2waKtuut40u1XVDBga247p3YfxWBfHRzQ4HHwqIGpDE2B+XUkIptIfv21Iz9Yh5NQbb/ZL3hg3dA0A2FYQtm32ePrqfl1+7SeCvdHu2wfVKuG7YtvFhbiby5ON9lMvqtgIPWjNbBUSkm+GmpdnwAoCWL5DCV5+scvlqwIXP4hWXYLcbTts3vlLQaBgO7PfZt9dbtMTLemnly9EbQwC2tfX3wbe+Uaa/D+I4BTTGLH/cTQQqM/6WUZenvl4mCO6iTvA6oWcEYL1x2LHd5bvPVnAdaatQQzuf02gahgYdnnu2n5Fhr6s/+bJaekYAYI0QNWDvmM9vP99HpV/RXKPqW5nj1mwatm52+Z3vV9i61et4TZ+1pid8gPlkPcH+PSUq/R7HX5rm3Pm4VTTSXtNOd505b3Fi0FrYv8/nmW9U2LRJEcfrYyq3GnpOADA3Pdu6xeWH36/wxqmIN9+OqNVsVUZn2SLSc9hq44YkhU2Diq9+ucTBAyFBoLpW12+t6UkBwFyUMAwdnj7ax6GHQ069U+OTc00mJ+1PwGGyYo2GbGUiSzcXBWGg2Fx1Gdvlc/hgyMCAotlgQ4/5tyLXrm9U/3VlZN/OcwExTE8bxq+mfP5FzLWJmOlp3coyNnieLRQ9NOQyMuwwfJ9i66hHpWJbfJJs/C4fbAJNqaQ4ceJk7/YAGVlLjRMAoVwWxh5UjO3yiJuaZszsr4mI2FRz35/zF9LUxuyhN4x/Kz0vgIxMCGk6l3ghogiCed15a6dRqudf0zvd/WLkRgAZtxrz1nTC2ZBtDxt9PrkTwK30cuteCT04qhW0QyGAnFMIIOcUAsg5hQByTiGAnFMIIOcUAsg5hQByTiGAnFMIIOcUAsg5hQByTiGAnFMIIOcUAsg5hQByTiGAnFMIIOcUAsg5hQByTiGAnFMIIOcUAsg57t1V2i7YyGit0dpuiHXL5aITyBtaK0ol8H0f9/XXf9Xt+ynoMNoYQt/h9Ltn+H8m5bNtG8sRTgAAAABJRU5ErkJggg==;flipH=0;flipV=0;" parent="1" vertex="1">
          <mxGeometry x="140" y="43" width="35" height="35" as="geometry" />
        </mxCell>
        <mxCell id="SQ3NC_S40KwjwUbllQxm-10" value="WeCom" style="shape=image;verticalLabelPosition=bottom;labelBackgroundColor=none;verticalAlign=top;aspect=fixed;imageAspect=0;image=data:image/png,iVBORw0KGgoAAAANSUhEUgAAAIAAAACACAYAAADDPmHLAAAiV0lEQVR4nO2deZxcVZn3v+ece6uqq7qzdZZOSMi+QEgIBAhbEFAQwsjywiubwMvwjoq+zmdedEAWUfB9UZRxGEZlFAcER0VAYlSURRYhEGQJJASJISF7Z+3upLfa7j1n/jj3VlV3qro73dXZun6fT6eX3Lr33HN+59nOc54jjDGGCgYs5P5uQAX7FxUCDHBUCDDAUSHAAEeFAAMcFQIMcFQIMMDh7O8G9AYm+McU/t4NROF3kf99oOOAJ4AJBjr8LgAl6dMgGgN+cD8Z3EQMUFKIAy0SaABt7CApWWJQDOxKGpJZQ2PW0JaGTMaQ0YaMBxqIKHClwFXguoJhMcFgF+IRQTxafKi1sV9S5IlxqOOAIIAJOl4U6fimpGHTLs2KLT5Ld/is263ZuVuzpc3QkjHUpw2kDfjBBwo/H76ZC9URyYgqGBIV1NVIhg+SzB4mObpOMWWEYkyNIOp2fLhv7D3UIWwp7TcChDMdQBX0ezJreGODzysbPJbXe7xY79PQZjCesVMbQAUfEoAE2d0AGdAa+3ldQJbgXsoVzBommTfa4djDFKdNcJgxSnW4ha+LE/Rgxz4ngMEORuGsamjVvLTO49lVHs+s9djY7KPT2IGOCJD5zhd0tAl62nqBvQfk9X3IBwzgARkDAqqrBNNHKC6c6vCxyS7zxzs5yeKb/L0OBS7sMwKEhpcTDLzWsGS9xw+XZnjtoyzrdutAeQtQ4KhANeieWfl9Raj3DeD72MZmQEQFR4+QXHpkhEtmR5hSm2eurw9+9dDvBOg843enDY8ty/DIuxkWb/DsBa5AusGsDGbk/jRMwhkuBXgayBrwoDouOHeKy/XHRzljkpUKoSpTB6k46FcC+AUd09Ru+MmbaX64NMO6HT4okDFhRbrJ2wMHGnLiXgSSIW1f6uzxDl88McL5MyNAXjUcbDZCvxAg1M9SQGvacP9bGf5tSYrNO32ICaQrEIFK6C1EwQ+iyN+KBopMp9978UwpAzc1bY3Ssyc53PyxGKdPcQErMUq6rwcgyk4AT+f1/MIVGW59IcUHW32IChzX6s3ePDHU0SIQy0YTWIEEIqTg4jBiBB0ttiCApAKjsi82hpL2kSZlUMCnj3S545Nxpg6zLx/GEw50lI0AhbN+Y5PmhmeTPLE8AwrcqMAzezfw4YD74ec8rC72DbiCWEQQdyAakcSjgvFxiDuCqCNQAlKeIeNDQ8awOW3wU4ZkxtDugZcJXEEXcEXOlZQEBN2L95YyePekoSYuuWN+lC/Nj+GIjirwQEVZCFDI9offznDrs0k2t2pk3FpJPdXv4Qw3gM4AnlWsKiKYPkQyb4xiwjDF9FrJ1GGS0YMkQxMSR+alTjFkNaSyhu0thi3NmmU7fTY2albu8Hmp3md3UkMGKyWiAqXy79WT3glVg+8DScOpkx3+fUGcOWMUvgkEzwFKhD4TIBT5De2GLz/VzsNLMxATKMfOpm4bQIHFncXOcglTaxUnjnc4+3CHeeMVYwdLqtzSvWg6/xL6/N08vzFpWNfo89xqj1c3eLy60aexRediEI4qkELdvUtAYJ00RCOC+86p4rMnRIEDVyX0iQChH7yi3uOKJ9p5b4uPrBZWJPbgrkoGhmAQyp00THL6JJer5kQ4erRiaFXHHtOmo7W9Nyt7hUGjUCIVkxobmjSvrPN4+N0Mr232aGszELVuak+lmQqlQcrwD3MjfO/8ONWuOCDjBr0mQPgyi/6a5bon22hIG5wqged3/1kVWtJJAwrmT3D5h2MinDfNZVgiP5ye7uiGlXsCmeCf0JfvvAi0fKvPovcz/HRZho92anBBRnqm1kKp5rcYTpjk8PinExw+RB5wJNhrAhQGdr73epob/9COrwTSCeLtXSDU8X7KPvL8aS6fOzHKgqlu7pow5l4Yut2X0AXuY2jANacMv1qW4b7X06zY5kNEoNyeeRCOAq/dMHWYYuEVCWbWqQOKBHtFgMKo1zdeSHLHcylr6InuZ4SS4Ac6/szJDjfNr+LsqU7+vjpPkAMFIRlCIiSzhgffzPCvr6VY06ghLpD08N3ThjExwcLPVHPC4U4Hd3l/Yq8IELo1tz+f5JvPp3DiAp+u9b0QgXvVbhg7THLn6VX8r7mRvLV/ELhKBiuZwgFrbDfc+XyS+99MkwFUVHRr8CoJfgZGRmDRZ6o5cbxzQEiCHhMgbOydL6X4+tNJVLXoIC6LQUnwg1W2zx8X5fazYoyuljmD7EC0irtC53WNxWs9rv9DkhWbPWRcdLs6aUlgGBUVPH1NDXMOU/vdO+gRAUJx9R9vZrh+YRsq3oPBV+AnDXVxwT3nxblydhAz19ZnPsjGvgMKVzZb0obbnkly3+tpG+ZWXdtCIQnGxSUvXlfN5OH7lwTdEiCc+c+syrLgZ62IiECLrpnuSsi2GU4c7/Czi+NMGa4OyYSKwkjfT5dl+Mrv2mnIGlSka5WgpDWEj65TvHhdDUNiYr9JxC4JEDJz9U6f0x9opT5tEE5poycXEWs1XHx0hP+6OE7MFQeMwdMfKLRjlm7yufTRVlbv0jjxrl1iR4HXarhoVoQnLk3YMPp+kIwlhyUc45QHlzzRzuY2g3S7tnilsIP/lfkxHr8sQcy1quJQHXwIspSFDTcfO1bx4nXVzB3t4LWbLt/b88FJCBYuy/Avi1O52Mi+RskmhrP/9ueSLFvvoeJdh3YdCX6b4ZbTY3x3QVUuWHIoifyu4AZRzbFDFU9dnWDeYQ5e0nRp5fsGVEJw2wsp3tzooUTflsh7g6LNC3Xbi2s8vvtqCpUQNrRZAkqC12a48bQY//+TVTaLhoEz+CGUsJNkVI3kd1clOGqkwk+VJoExYCRktOGzi9pJZcklyOwr7NE0jW1EexZueLodIcF0MZCOsjP/wjlR7j63KkeeAymgsy+hpCXBiGrJwssTjK+R+JnSmcta2zjCu5t9vvNyEik6pjb0N/ZoVmiN/uviFO9u8pExUdKtkdKGOU+b6PDoxXGMycftBzJCEkwZofjlpxO4AoxfWt9qDTIu+Parad7f5qN6EFktFzq0KdTZm3Zr7l2SRsYEpoTolwJ0FupqJI9cnCCqgoSQfdDogwFK2vjJSRMc/mVBFSZpSkoBAwgJybTh6y+kOvy9v9GxScFS63deTrOzVVuXr4sPqqzh+xfEGT9M4umBp/O7gxOQ4EsnRLl2bgSvrbQ9oDXIKsGT72d4eY1nJ9g+YECuOdpYkb62QfPw8gwiJko2wAlE/zXHR7h4htshTl5BR6ggaPadc+OMHSrxs8UniiGfDXXPa6ncZOxv5IYttDx/8maa5laNdIpbo1KAnzVMGKa466yq3J6+CopDBDN5eEJw37lxm+ZG8cHV2m5EeWq1x5INVgr0JKuqL5CQ34nb2Gb48bs2pUuX0P1CgEnD10+PMiohD8pFnX2NMMhz4VEuZ09x0ani9kAYDdSe4YG3M0D/Ty4JeV3z6/ez7GwOZn+Ri5UAnYa5ExwunxOxCzuVwe8RTCDSb/9YlEgXvp42QFTw+MoM21pMbrtaf0GGrPM1PLoig+giHq0B4xtuOTVG1LFXVcR/zxDmP54y0WXBDKdkgMgYkApaWw2/WJYG+lcNyJCZH+z0WbzRgxLJDVKAycLsMYoF0xzb0Irht1cI58pXTo7hOKWNbAEg4ekPvZx67i8pIEND7+mVWTKZ0r6qEEDGcPXsCDFX5LJzK+g5Qiv/pMMdThyn7K6iIv2tg13Sizf7rG3S/Roezqnw363JlhTnApvZU10tuGx2tOMHK+gxBPmEmP8xM5KrddAZBhAK2pOalz/K2r/1FwGkhK3Nho92aowjSrp+ZA3nTnQ5bLBAUyFAbxEmkFx6pIuK2DB7sa6UgDDw3FqvX9sjAZZt99i0S9tU5yIEEALQcNY0N5cXV0HvEKqB0YMlZ453IGOKTyYDxoGVO33SWasq+kMKSIAPd/hQgolCgOdBTVxwylh1UO6BP9DgB3398UkuZO06QGdoAziCv+3UrG2yM64/5p0EeG+LXaoqxjAB4BtGD5ZMHWF3TVYI0DeE3Te3TqGieUIUwmATa9vaDGubTP6PZYYlQJOxBCjW2ED8H1GrcNWBW8njYEJobB81SlIbFxiP0i6VgPrdPdhv10vIVNZQ36q7XsfVcGKdvaAy/n1HSIDhNZJBCTurSgpVCasbAgL0g+SVLSmDn+lmRcfAhFqV+7mCvkGQzySePkiWtL/Ci9fuKr2A1FfIxnZDMktJGwAAA6OqK4q/P3B4jehY0qYAJvj7+mT/zTqnNQPZ7vyLoN5uBeVD2OPDqiwBpLC5l2FwKDckAlq6WELuK5ysb7pMRTYGhANOsPhTif+WF0OqbKm8bFgDCWwfO7Y6iYa8/9cPfd9lufh8qFJQosB2BX1ExjeYtGHcSMXkQZJBLqxqNdQ3+DS3GltPMbi2XySAqwRKFI9KG8Jcd0ObV+CLVsjQZ4SxlCNHKn5xVTUXzoxQFdTJMMDqHT6PvpflG39O0RpIBtONrd4bOFEHpOjGBvBAVMK/ZUU4jhceFSHYYYhvTJBZLZg6QvG1MxWfmOJw/xvpfnO+nMExiClhK2U7lFye2tVe8f/KDYNGG4MSChAdCmXYglg+Jx3ucPxhVlP3R/KNMzwhicUEtGsEojjTJGxpCURARfyXBdr4SKFQAral61nd+iE70vVUO4OYmJjM5MQMpFB4RuP0YxkRJ+oKBkUlJbNAAQS2OFIFZYE2GikUG9vXcO+au3hl5+/YltkBQQp5XMIxQ87h+ok3cNrws/CNH0iJ8kNKATOHiNJ56MF2n5e3WwlQyQLrG+zMlyxu+ANnvXYMj21+kHZ/B8NcwTBHUutKohJeb3yaK946m39b/U2UUOhSW7T6CAlw3BiF8CkejQJQgoZdPrvaTa7IcgV7D42d+ata3uez71yGb1oYFXFRQuAbg280vtEYYKjrMDwi+faHt/OzDfchhUKb8lviEmDSSFXSuwsDQZt3G96ut9kplRXB3sB2mjaaO/92A+1+C4OUImOymCKWl2dsX9e6ku98eDMb2lcjhSw7CSTArOGSoTUSz99zrT8XC8gaXtvYf6tShzp8o5FIlu5+nVcaX2Coq8h2I9a10USlojHbzqItvwAoSpa+QGoDk2sVM4ZLyBZfltQGcGHhX7MHRV2/AxlvN72Op70e21I+mpgU/KXhZYCyG4NSB7L/1HFOvjpEJxgDwhUs3+bzxgbPFk6sqIG9ggg6dm3b6r3a7WOMJioM65LLSelk2dslw+DChUe6ucMP9mgEYdFHw4NL07aOb9mbMjCgRHBsSQ9hsDuvd2R3s6ZlFUBZ7QAZ6vzjDlMcM1qhS2wO8TUQEzyxMsuWZp3b9VpBzxDq7qk1R+CZLjKAinzSEQ4tXoZXm54HrDdRLshws0LEEZw1xUX4JbwBbJJiU4vhB29k9nkxo4MdYZ8eP+RUEqoKH5FTC93BYIhIeHnn0+gyB4Uk5GPM18yJYIIql6VcQhkVPPBmmi3NOneCVgXdw/rxHjMHHc05Iy9gR8bDlT07vN03PoMUvL3rBVa3rgTsOkJZ2mUbZwdy+kjFBdNcKLVnLYgJbG/RfPOldEUK7BU0QjgY4GvT7mFyYgo7MlkiwkUW2xjQCY5QtPs+T9Y/YtdsytTx+Qoh2Fn/j/OitjRcidBwWNHqP99KsWSDZ4sfVJaKu4EPSERmHaTXMqrqMB459g8cUT2XzeksbcF2bCkESqiiIt43mkGO5JebfsyG9o8QZQoK5QgQ1rI5c5LDx6e6+F1UsQB7yNY/PdVOe9ZgKuHhEjDY8+4U7HgIlk9DrJiDbvo9ExJTWTjvJW6e9g2mJ+YhibDLM+zO+jR7PkIIHKEQhOn4BlcImrK7+P6arwcrt33v9A7FosPK4C+v9/jET1owUbsNvNhjHGmLHX/ptBj3nVtFVttyqRWE0EGWp4AdD8C6z9rKD74Pgz+FnvabnOjP+hk2pdbyUdsa3tn1Z5Y0vco7u1/F01DtQEyq3BqBQNDiw8+OfY5Thp+ZW1buLfaoFh5W+rzgV238dlkGVV26TKwS9uCnxy5LcPGsyCFdFXyvYDwI9L3Y/G2ovzkoBa4gm4VJD8KIazHGR2NQopMxaOC95qUs2vJL/rDtl2xObabGAVcojDEktaEudji/mfcWQyO1aAyyl+u0exAgrPq1oVEz9z9aaPLstrFSu4aFDzUK/nRdDceNVngGnAEZJTJgdLDTU0B6E2bjlxGNjwVn1Uqb+jvuWzDmqwXXhjECE5y+qjsQYluynp9v+hGPbLyX3V4zQx2JQLAt43PuqIt4YM6TaKEDp3LvO34P2khhjbrxwyS3nRFDJ03R3auQXyncnTV86r9aWb9L2yNTB4xRaGwNWBOspQepXez4CXxwqh18x7ED7Xkw5taCwc8Plh06iRQSJRwMBm00vvEZVTWGG6bewa+Of51Th53NzqzGM5q6qMPT2xdy2wdfys3+3tgERQ+MCDcmCGM446FW/vyRh4qXPgVDStApw9xRij9eW82IxIF3Pl55EMxyTDB7C17Qb4ddT8O2e6HlFXvyqFT2Wk/D0Etg6uOWLHsRDg7JEHoGP1jzXe5ZcxPVCqLSYUsqy+cn3sAt078bHLUn9zi405A/vKtzXmHJE0NCVbCmQXPqj1rYESSNlgr8KGlPBjthjOK3V1czqkYeWjZBB5EdDJ+3G1IfQNMi2PUkpGysHqUCogTuUWQ8HPkWOMPobUVlbTRCWFnx2y2P8uUVVxGTmriKsC2d4uFjf89pw8/DMz6uLG0Udp6YXR4ZE178m/czXPTzNlRCdHlYYngWztRhiscuTzDnADsksffQgMSYLOz6EzQ/g8h8CKl1kPyrvURQUM4rXFYN9OnUP8KQc4LZ33uL3UoDHyUcXtrxW65/9wJ2e/ZJj5/wJ06u/TigeX+b4blVWf6yTZPyDHUJyTkTFGdOd6mJiA4HeXR7aFQ4i2/5U5JvPZ/CqRa5AyGKQSlLguExyeOXJTh9knNQHKNeEuGgtS6G9f8Mba/n/08S1MoLAyEFHSOUPRdm6AUw9Td7Lfq7gmc8HOGwpOFZHq3/DScOnc3lYz9PY7vmpmdSPLQsg581hVu7QMC0YYo7PlnFZTPdHAm6JYAhf1belY+28YvlGZxENySQ9pTQCPDv51bx2XnRftnV0v+wM59di2D1Jda9U4JAmwZivlhHBC9qonDEYkgcG6iQ8i3i2MzivGhtaNN86pE2lqzzEDUif/wugU0H6IyBDNx9bhU3nhazJOjuQYL8WsGPLopzyjh7IFKXZ+FokA5kFXxuYTvfeD51EC4fB2I8tR4++nvAAxVU0Da+JUOpBRkRlAUd/ElIzMUajWXO5BES3/hktU/a97hmYZIlGzwiQ2ylN63tOHjBd61BugInIbjpj0meWpW1h2X35GHhzK2OCp74TDXThnd9Fg7kjUhZLbjzhSRvbfL3WQ38siDcnF//VfAaLaNND0u2mWA5tfbagnv1RxsVrlQ8t9Lw1PsZnGpBposmamODk7hw+/MpMp7puTkqhSV1XY1g4dUJ6mqkJUEXxNaBt2SAp/9mq18fHGsGgbjONkLL4mDzfk+DG4E94I6EQacFf+ofKzicmD9YmkaonqWZaQ0iYtP7Xlnb89xEgNyxZkfWKp66upqR1bJbSUAgCbpi5gGHkKXJv0K2HkSoRXsAEWzqH7QAnKGUTLTsaxOxvExlYXWDxqieTa4wy9vLGF6v13vvkCph9cqxdYo/XlNNbcKSoFTpOIOdPHPHBeHNbvpCm0BnlViE6k/oTgEUbZJ7RO16BAMkZgc/909YNGzn2gaf7W0aVIl9ncU+G3xvTfaCAJA/C+fYOsUr/7uGGcOU3ULeOcokrL1UWyM5dozVFaW6MswylsJ6EVLkLdjQkCmn+jDkyVb47MJ3kMLposXFIAJPIQLxk4M/9Y/4DyfIW9t8mtusKu5p/4Rv5EZE1xVCuoITnDFwRK1k/gSHlW+lUUEV8RBS2JOyjx7rcNggWdQVDI3CME7wwVafNQ2a2oRgZp1iUEzsEU3MSYfCFxal09gKET4/N9gif8+V23yEgCNG2SPuRWyG1eXe9uDinshYAc4gqJqab1g/IDxn+KXV2ZLvXgyC4HwoF44YKXtPgLAR2sCqhqDOYLH+0faMARlIjXClsPAIdoDnP8xy10splmz2SBqBwjA4JvjEBIfjxjkcU6c4aoSibrDMq5uevHWJa9IebGj0WbbdZ3m9z7PrPd5d43H3eVUcMSqG1j4qMhpqzoCGR+0Jmd2Jc6FsWfXBFwVh3yCOUGaEweSmdsOiNR50c1p5hyYKMFmYNFTxd5Pd3hMgjIdnNazabXVQ5zb4BlBw3qSOBQ7C6KIj7EEV/+/5FI++n7HSIGLp7BtBYwYeW5HlsWVZiArq4oJBgwSzh0jmjHQYM1hQWy2JRwVDIpBQgohjpUnatxKqIWtoTxt2Jw07Ww1rGnxWNmlWNmqaWjVNSWOTdmK2V7e1FbLYoMfchmxaBDplF3dKbecSCrSHUXEYdQPCzwZ+cPkJEJ7StnBFloZdGpkofbhnhyYKK/m8lObmU+LUVPVBBYQM2NmqaU/tKQEEdsJUVQnmBBUuCPxQR0JrxnDf4jTfei1Fa9IgqkTe2wrvI23+ocCSZmvKsLVNs2qzzxPvZTtcJxxBwoGoY++T9g2+hjYPW/2E/LU2bg8ogYyJnETxteHZjR53YbN4MRpZNRMmPggfXWmzeZQK367wTW19BSNh4g8hPqOgn3RZ7YDQ+s94hvuXpkEJuqrwE6q6sA+9FsPnT4rx98fZM5/6LAG2NGuSHntIOinBTxrOnuAyrEp0WBn8xfIMd7+YYvlWH6oEKm4ZXCxIFIo2QRBMU6KDHRH+6GloBVtQKWycsLpORkSuzeEPufCoCeIVAK5gxSafv2zwmHe4g6cljvCh9jJQg2HDDZBa2fHBwU1NbCZm/PeQg8+GbWvQr/wUcdQnEDM+BtqzgaQyIAzLL3o/y1sbPWSnZXqB7ftwSV972KPqfGv0ff3sGLecWWX7hr4QIOjkj5o0GQ9ElA4SQAqrDo8e5yClfdjyep9bn03y+w+z4ICqFrmQZbfPC58Z/tIJOU4ExlF4bTjAPbm/FJDWhhufSfLCdTWBoatQUsOQc6HmNGh4BFpehsw2EBLjjoaaUxG1VyJUNSbZjL7/CsyKN6D6LtS1P0B87PN2JITq04JIGF1tShtueSFlOWXy7x/aZH7SWPMjIpg+VDJliGRmneLaYyLMGKlyfSNEHwigsVL0b7s0ZA1OTHSoc+hpwBWcOd6hKWn45gspHng7TWvGIKtsJ5Qzc6jz7O4NtAEVE7y81uOqhe08clE8kFoS0KASMPJ6+xWs94twQMNl4PYWzJaVUGtHx//P61FaI874ArkgfS/tAh0Yzbc+nWT1dt/mawYSwfftKe64gjMnulw43eG0qS4TBkkGV4kO9yiM2fSaAOE9drXaUexoOgX/OHDjn5I0JTUfbtUQF6iqri3WUE30dOaWE+FYRmoEv3w7zfqdPl87PcbpkxyijkQIkw8MhXrd+OQWewyI2sOQ592KfvQmGOxAlcJ/8IvIrRuQl307WFkLlob3QhqEKvRXK7L8+M00TkLkQu1+u6EmJvjMCVGunhvhxHEdh9VA7ozHzgG7XhMgDP9uDapZFh0rCW9s9ECKLsV9KL58bc8kDsmDK3L+bvgmod7uCwR0OOY+VC/Gt3EL30BVVLCtVfPGJo+TxztEXTAIRG5VLxR3nRZDjEaefyNk0+gnbochDiQk+nd3Y9a/hbz0bsTEufZaHeQSdiMRdDD472z2+MKiNnzXxkZ0FkgbLpsV4dYzYhxVZ9sSRjRD4w9ROjOr23yAYghtLK3h4w+28tL6LDJa/Bw8JUoPWuHAkzSIqOCqoyPEI4Kl67K81aDRqYIPhpa7otcnaubUk4f1U8NQvYSxgyUnjlHMOczh/KkuR41WvVPZ2gep0I/8X/Qz98KggCStPsTiyLP/CXnWP8KQUfnrIc/IgghVKLJXbfc566FWNrRr3Jgg224Ym5Dcu6CKi2dHgHxEc2+Sb3pHgIBdzSnD7B+0sL7FHjW/N6HIwoGPRASXznL58ikxjg5YnM4a1u7W/G2rz5JNHu9u12xv1mxuM2xv0XYACyJ5JeMtpuAr+F3GBdMHS4bFBJOHS04e4zBrjGLqcMmIRMcb+SYflu4xTPBArfG/NR+z6nVb+41A/LcBw0ch538OccIliMNn7XkP7aOFRAjBugY7+GuaDZEqyLQYZo1zeOJ/Jpg2XOYmV2+O8ukVAUJWrt+tmfL95i6zgzojXEcgZYhHBRfPdPnKyTFmj7YD7wc5h8VEVjpr2Npi2Nyq2dmm2dlqaEkZtrYadqUNyawh5VsfucoVRBXEHMGIhGB0jWRIlaA2LhleLZg8WDIovmePhbZHof/cK4T+/+ZVeN88AbwWUIEOkxKyPiSBmjhiwkmI2QsQ005CDJ8IQ+tsXwDKaO5/PcsXnmzDqZV4zYa/m+7yyGUJhkZFnxNv+0SAxWs95j/UgogUP28w9xAKZnzKEHUFl8+M8H9OiTI3WCQKTyINWWwKfPVwo2q5k0tD4yhnE9AnL21P+DaLSP/xHvTP/hkGy4LARqD7PR9S5KPGtYchRs1EzDoLPvEFZCzO8vosCx5up75Fs+AIl19fniDqiLLkWvaKAKHrcf+SFF98KomIFdf/e+j4mOCKI1y+ckqMOSUGvivkSFH4LNHhW/HPdf5BhIUR+mupJnxeQGHPw7tjHmx6F6Kdwsk5jyJonKchC2RAjD0K8YWHkROPZe3OLOsa4YxptqR4Z3eut+gTAX69PMMlv2pDxjvGojsPvOPCpbMi3HByLLcs3Be9dVAhNAhffgT9o2ugRna9nz4khBTQ5iFiw5FffR4xcTah+R0a4eVAr41ABDS2G476fjNbW61xEopTr0DUX3yEy03zY8weaAOfQ/DC6STeVydD81a7CtaTbleOJcGEYxC3LIZIle23MuqpXmnVsFxsbVzw0AVxBjuQ2W3w2w1eq8H14cpZEf58XTU/vzTB7DHKelymeDDi0IawLx6NI0+4BtoJtoz1AL4HCQez+h1YutBW9CpzzeBeSYAQ4YB+sN3nwbczbNytGZEQXDk7wonjbYypN77pIQftg5SYlYvx7z4LIpkiGS0loBS0aMQpV6Ou/2nZVxf7RAAobYyEBtvAmu0lEAZOMin8W6ZjGjZARPYsX1BIyGjE2KNRdy4t6+BDGdJVwlx/L8jZCxM6xYAT9V0g1JmRGIw5yjr4e6vHs83lTYoMUBY6ySDWLEQ+obOCTghmuxh3fECAHn5OCBsjGDo9v928jDjo9+0ebBCTjwl2lPWw64WwcYGp8+zvZS7JViHAvoKwOl8ceSaMnwHt2e69ARHEzRNVyJOuCP5WXvFaIcC+QmgHxGpQl90DvhNU5CpBAint126NPOdmxOhpZfcAoEKAfQtpE03FnPOQ194PSQ1tfr7OgFTBdwEZDY0e8vwbkBfdFiSRlN+46rMbWEEvEISHzXvPohfehVnzSqfsVxB1M5CfuhUx/zN0zEAuLyoE2F/IiXONWfOOzRlIN4GTQIyfg5h+AkQS+RS0flq2qhBgfyKQBL3+/zKgQoD9jiCBL1w6Bmxuu+gXnd8ZFQIMcFS8gAGOCgEGOCoEGOCoEGCAo0KAAY4KAQY4KgQY4KgQYIDjvwEti6Dv3eQMnQAAAABJRU5ErkJggg==;imageBackground=#FF3333;flipH=0;flipV=0;" parent="1" vertex="1">
          <mxGeometry x="70" y="42.5" width="35" height="35" as="geometry" />
        </mxCell>
        <mxCell id="SQ3NC_S40KwjwUbllQxm-18" value="" style="endArrow=classic;startArrow=classic;html=1;rounded=0;entryX=0.158;entryY=1.019;entryDx=0;entryDy=0;entryPerimeter=0;exitX=0.096;exitY=-0.05;exitDx=0;exitDy=0;exitPerimeter=0;" parent="1" source="SQ3NC_S40KwjwUbllQxm-2" target="SQ3NC_S40KwjwUbllQxm-3" edge="1">
          <mxGeometry width="50" height="50" relative="1" as="geometry">
            <mxPoint x="-60" y="176.96" as="sourcePoint" />
            <mxPoint x="77.88000000000011" y="101.03999999999996" as="targetPoint" />
          </mxGeometry>
        </mxCell>
        <mxCell id="SQ3NC_S40KwjwUbllQxm-20" value="" style="endArrow=classic;startArrow=classic;html=1;rounded=0;entryX=0.158;entryY=1.019;entryDx=0;entryDy=0;entryPerimeter=0;exitX=0.35;exitY=-0.012;exitDx=0;exitDy=0;exitPerimeter=0;" parent="1" source="SQ3NC_S40KwjwUbllQxm-2" edge="1">
          <mxGeometry width="50" height="50" relative="1" as="geometry">
            <mxPoint x="157" y="137" as="sourcePoint" />
            <mxPoint x="158" y="100" as="targetPoint" />
          </mxGeometry>
        </mxCell>
        <mxCell id="SQ3NC_S40KwjwUbllQxm-22" value="" style="endArrow=classic;startArrow=classic;html=1;rounded=0;entryX=0.158;entryY=1.019;entryDx=0;entryDy=0;entryPerimeter=0;exitX=0.35;exitY=-0.012;exitDx=0;exitDy=0;exitPerimeter=0;" parent="1" edge="1">
          <mxGeometry width="50" height="50" relative="1" as="geometry">
            <mxPoint x="227.25" y="140" as="sourcePoint" />
            <mxPoint x="227.25" y="100" as="targetPoint" />
          </mxGeometry>
        </mxCell>
        <mxCell id="SQ3NC_S40KwjwUbllQxm-23" value="" style="endArrow=classic;startArrow=classic;html=1;rounded=0;entryX=0.158;entryY=1.019;entryDx=0;entryDy=0;entryPerimeter=0;exitX=0.35;exitY=-0.012;exitDx=0;exitDy=0;exitPerimeter=0;" parent="1" edge="1">
          <mxGeometry width="50" height="50" relative="1" as="geometry">
            <mxPoint x="297.25" y="140" as="sourcePoint" />
            <mxPoint x="297.25" y="100" as="targetPoint" />
          </mxGeometry>
        </mxCell>
        <mxCell id="SQ3NC_S40KwjwUbllQxm-24" style="edgeStyle=orthogonalEdgeStyle;rounded=0;orthogonalLoop=1;jettySize=auto;html=1;exitX=0.5;exitY=1;exitDx=0;exitDy=0;" parent="1" source="SQ3NC_S40KwjwUbllQxm-1" target="SQ3NC_S40KwjwUbllQxm-1" edge="1">
          <mxGeometry relative="1" as="geometry" />
        </mxCell>
        <mxCell id="SQ3NC_S40KwjwUbllQxm-26" value="&lt;font&gt;External services &amp;amp; tools&lt;/font&gt;" style="rounded=1;whiteSpace=wrap;html=1;align=left;verticalAlign=top;labelBackgroundColor=none;" parent="1" vertex="1">
          <mxGeometry x="390" y="150" width="360" height="100" as="geometry" />
        </mxCell>
        <mxCell id="SQ3NC_S40KwjwUbllQxm-27" value="&lt;font style=&quot;font-size: 10px;&quot;&gt;Agent service&lt;/font&gt;" style="rounded=1;whiteSpace=wrap;html=1;fillColor=#d5e8d4;strokeColor=#82b366;" parent="1" vertex="1">
          <mxGeometry x="57.5" y="175" width="60" height="40" as="geometry" />
        </mxCell>
        <mxCell id="SQ3NC_S40KwjwUbllQxm-28" value="&lt;font style=&quot;font-size: 10px;&quot;&gt;Jenkins&lt;/font&gt;&lt;div&gt;&lt;font style=&quot;font-size: 10px;&quot;&gt;service&lt;/font&gt;&lt;/div&gt;" style="rounded=1;whiteSpace=wrap;html=1;fillColor=#d5e8d4;strokeColor=#82b366;" parent="1" vertex="1">
          <mxGeometry x="127.5" y="175" width="60" height="40" as="geometry" />
        </mxCell>
        <mxCell id="SQ3NC_S40KwjwUbllQxm-29" value="&lt;font&gt;Prometheus&lt;/font&gt;&lt;div&gt;&lt;font&gt;Service&lt;/font&gt;&lt;/div&gt;" style="rounded=1;whiteSpace=wrap;html=1;fillColor=#d5e8d4;strokeColor=#82b366;fontSize=10;" parent="1" vertex="1">
          <mxGeometry x="197.5" y="175" width="72.5" height="40" as="geometry" />
        </mxCell>
        <mxCell id="SQ3NC_S40KwjwUbllQxm-30" value="&lt;font&gt;Chat service&lt;/font&gt;" style="rounded=1;whiteSpace=wrap;html=1;fillColor=#d5e8d4;strokeColor=#82b366;fontSize=10;" parent="1" vertex="1">
          <mxGeometry x="280" y="175" width="72.5" height="40" as="geometry" />
        </mxCell>
        <mxCell id="SQ3NC_S40KwjwUbllQxm-31" value="&lt;font style=&quot;font-size: 9px;&quot;&gt;Extendable Services&lt;/font&gt;" style="rounded=1;whiteSpace=wrap;html=1;fillColor=#d5e8d4;strokeColor=#82b366;dashed=1;" parent="1" vertex="1">
          <mxGeometry x="110" y="220" width="170" height="20" as="geometry" />
        </mxCell>
        <mxCell id="SQ3NC_S40KwjwUbllQxm-33" value="Jenkins" style="shape=image;verticalLabelPosition=bottom;labelBackgroundColor=default;verticalAlign=top;aspect=fixed;imageAspect=0;image=data:image/png,iVBORw0KGgoAAAANSUhEUgAAAOEAAADhCAMAAAAJbSJIAAABCFBMVEX///8mMjj/4LJFWmT0QzZhYWFUbnr/5LUAGSLV19j/57f/4rMjLzQiLzZDWGEbKzQOJDAAIC77RDYAHCwYKTMRJjFxbGD32q4YJy4FIS4RIipRa3YAMTjBro7ly6MVJSwbMjjexZ8AFR8AGCrIs5J9dGT19vafknoJHibUvZlVV1hZWVK3pYju0qgvOz4VMTjJy8xvdnmTh3IvOT5nZFlBR0pMT0uKgG1CR0bqQjY6TFTb3d7l5+edoaRcZGi/wsOGi46qmoCrrrCROjdxNzexPTd8ODeMkZNlbHC+PjdINDgyQkozMzhcNTjWQDY+MzgACBV3fYEADybMPzedOze4PTdVNTiLOTfFLt9nAAAXYklEQVR4nO1dCXfauBYe00XERrUdbAwkkJCwb0kwBtqShbTTLW1mOu1M//8/ed60WJZZBek7h++cmbaOY/vzvbqbruQ//thjjz322GOPPfbYY4899thjjz32WAv1en369uDSxcHbab3+1I8jENPp7fXd1c1D/uzsLJ1ON5vu/9y/Qefm+8f7g+n/N9Xp5fVVW0o3i/k8hFIUGQjz+WL6xLm5u50+9YOuhfrtRwe63GBGmguo5pt5++r2/0yW0+ubs2aeFVsyMvnm3871/40o3163z4rLs8PCLJ7d3P8fkKzf3xTXoBeSbMKrg6dmMB/Tu/za9Hy46urcPjWLZBxcna0w9hIFmf5dOR58Suc3phdybF8+NZs4pp+a6lJPrxpaQc+en5/7/xVMlSd12Lz6zbxH/e7vJfhBo6A6nXG32ipbKVmWQapcbQz7hsZhmU9fPzUpGrd2cSE9taB2BtWK4hIDQEkpKQ8KAHKq0s31dSNGMn3z27iO+lV6kX2Bmpnr9hQZKAEzGooCZKs16GdZLcjD+6emFuDWXmRg1MJoZnmCS4YrylbNMKNvCqa/PzU5F/d2c4EATZiruENuETxJziZa9GJF56k19dZZxE81x+Ul+IWSTJU6euSCqv2kMc5Bm+UH+07039lcea52xgSZKjkF+qLw5OlcY/07a2Cg3XYih7RRS16BX8ARzFSDvmj6qSKcW+mE4Se1X0QIqmpDWVY/aY5yr0YPx0zzaSjepZnMFjovogS1UWVVAWI5Vm3KdWSKT0Bx6jAu3hNghCA8H6fWEGAIYHUKtKLu3NwcsDEo7L9gCKoleW1+nhjlBuUcMyc7dhq3URMKXQvjEmxTB9VJZSOCLuQSRRE6Ow3EWYKOx+9FmzpkjHrrayim2JLIfU4+7ZJgxMbAvs/vxQubHDM7GwxBAlCm7E1zd6nG279pfnbI70WfvG9zmFrPhsYpUlf9e1fWZmrT9sQJ+dFWxhBF0KNIMsedDcVPdCKBBEhbGXUijKBLsUV8/8ndTgjepykNfYFBBqHat8QR9Cwq8Ytnu4hQ603KxBCCREehXRZhZCiKDQ1f+2EHDL8THaUkSOmoVhVL0I3gOtig7sCeviUilF7wdFRvcBy9kgIB1iAI3LwYT1vB/NaNDSXCwMi0245DOUJjGCeoyCmr1e3OuqWWtWKqAUCv1O2WGjiZOtl2VaNOggzHpwY9EIIwbmUAqAxGpq5pplbImsOVdBi0cpr7mxqVLZ683S7De0pJYWzKU5IKMQJya6hR4aWqD5fnZw21WA02v2UhXs2v+ho1RkeVVE1nfkXLLSlFxZoYnHukt5pkXM4vOkHJYqUw0mJnFVpLUVSUIY+glL/bIsFrNqtnoHWjz65YI85DGuOl0irQ1fl3SW/PnH5q8m+JoUelo4ChyTlLHS4lQ+AkKExxa3Xw9gn/jvSzR6Qjjwu8s+BombAVtLJQ1TRVNQpsHdzZEsGbJIKUSTWsyDOex0+FqpEdLyNDMPtnUuu2KpVKtdHRIspe3E50SgXc9AND26Y8Ph2xKakR5STMQjZrQtuZDActztwMh2GjZMkAKN6sDajUCpRF3o7DmLJNMR45p92ORqW0EQFdbEZNrTOrlsPDKxT4yV/lMlV5g/Y2bM1VPsJOsp02JyylB6I1CXlDY+BLw3MAa6dVitwg84vbqIFTATeU+hF2NEPYwQyxsYdGddOimw+5hA3zNtSUBNx0UjiXYQeG8m4JIehRzIa3yajCCdaxmaHTepIdYoOCtVQpn4fni8uH5RoyN2nh1vSWKCmHIM/SgIYZSLAiLh8GFRTlnHwUzRDbGVJao4GjD62E+MiBkupixiACNl7CqxmkfsgjSDJ8o4yMJfB9dGEglKBcQ56/KdhfTLGd4YoQKymckGHoKakbnwkFqCKnKHpC8RINQ8i6iaiSmg2kpKDluXvRRSmlh/2F4IF4P58htkLZVoSh2hFcdUsBFAjCG7EMr3HQPV9JJdySoPRchlnRdUU3WwkHoujA7Q6NQ54zJEqqUvUJeaRqnflmZg36oIRi3aLYgtT3uQyxJSXD0PNd9tCa86wuSgnHOV1h6JhSQZGbYFOD609chngY6hXq4YA1P8wGpX9KPCnKtZhugypSDiWFnkSwz5/LkAzDlXwDGGiQd7wHYzVlNxlGL0NGPj9/JZbhPC11eMnhYsg5VeNMAICWrvZiDHX08nBoCttCGc4dh3gYxqvBcxkOVcgRIpiZGqu9YKbpYRXP/XFws4wk1JjOtaVk0qK8Sn7rMpS0WeyduP5AzTGiBV0N2iFDPJkotqZ4XUxmiDMnOFrJ/Lta6kZ5vMOwz6ipF6wVZj5tkl6IbSEiydMcQxN79QsYes47ppCpVEeVCsxRpZx1XXzgeyyUBYt1FzguleJRWzselC4FP4FUO4xi+wU6tcZeyaVl+mmKkkLZhdi68FsUtXHi0nY8N1yOoV+K09k5DL9+BdnpD29Oz/CLBQrqPjkROhtcV5MZYmexmil1R5Snbyrr/CyPQYGZ//BrPm4cr5Dyj+gJGjsslropvjfn66EdY7jclBLh4oeYWabK4TOEoyhv4HtB3TM2IBe+7bzYJjDSQuPP+vrFbikguS5DJShJsEK0/HJCthIZn2HRR3ffBskuxLr8a+5yEb/ha20ZBoJhNdKXIW2Xveg29ILQ7oGQrOfyhTK8TJhXc7WWU4VKJgUsK1gw4z62PPPVFPYjZiWslOOCj3tN9zfKgRdUJz0ZBTVSWijD+hmfodd3uby3AK3OZDL0Fj1Vyj0rFWZCBTqwQdM5aLocVEej4aBVCe+hOuUqyhD/FsswcVETxEEbXJDwuo5bVaG/cM00vBm58DejATuyJJpvgZSe+yuqSWbKIRwju34mNGxrL7PsTl0Ql1KtTf7DSjyGyJIENR486qi7oL+ciexYuFu8Lk2Kz+KzIqzEJkx96JHxi0NrvesSVzrJr1Ykw4idgWZBZ+edw7c7PzAFVW7ngRqNvoNCq3cfted6+D7vRsIZ1h+ofnJzMqtWqo0JhyN05hZmlB5PhiozsUFmjtWR6ylGsdtsQ0uvqblDWJL9Djy5xenm0SvzKzO5WG8NLHTYhnd5gIaeWQPygPkVqOWwpRHHkG4oxSsMgBUfIpyENgJrmI2s+VX1STdWrlIqeDq7MJB79MoZVctOZj2UPoljSFrZoOm/cOBPxYOezWpQPOthHl5pNYbwXC9omrfU2chVU5xVbTLRTL0hlydZzTu9oJ8bw1klJZfFMySNO4GPAq3BuGsBBZTYbhnoLPT5QJZTlarXUFntyfyeBVDN4ivqY3c8dLve6RUvGlIUBSf5whji3FAKS2O1rGkUpBlQcGUPI7ugBhyKMmimTRyztN8s1FDvLYriWpihKI+Pg+4ggJRzQRCs51BgSSGWz64FUKHcvMa0iG2BIU6c/DICuYHZSfWyUhRsgWVNyA1K/81hNJHCY0NUXFp/QJ1ChucLqDDKzMmst1oQ1SwLBdB9l1qOpkj6kM4EMZziqcO+9/TygNw7WxozDmPFQkYyRcuhrhyZKsclYelEEMMD1GcSxGQ0QzgZMAzPe4KWkoBen7p0llJ+rETQFsQQl0qD9A/Q1gV2olrKWoWNKE4IRaiS9nj8ioX1YN4jUxqMMVCNdzWHdzS0nCgRpvz+aaItVPs4QO0Ywua5sbMI7aSFbhBZMi+pBVirrLLsfhmKRIoGjnixsxQ2vXbPMJT9O7i+sdvJovzCjReHJWutBTFzKRJFNXGWrKAwQ9gUKaOlYUwF+ykg9xpufgFVDXZmvaWbRleh2MMBI07MlBQypcKq+tjShAwV/yW6DJWUIiutrjTsLr/pxaoUSXCTRRWSnvCZGewtjAGqfukhQz/CXLAlyzJQEnclIHEhipZITCVsdg17fFyjADUTMRQCpVJLXPat4GIsmgPGIY2wpTN1VCkhPWupkSqSoZzTYcLuIDLOhjFD4vCFFRNv8GjHZWg38RYpww6E6ixmiRXXlM1wkq2H8aA3Nx48jbi2L9ylQKr2oGxL4hh6Hg5qnZYsAwxZlsvdnE3KXXoYTMhIpQS2et/GBqInxY5ALfVnaFS9n2t0qx5K3dm4Y+j0Bmd4rhgFHCInSKekL48EZUKDl9B4eNX7gq7rhYJmshubEVOKDI3IaXwyjb2glLYmlPLCKQMDhfQk8M8LrHiTMoa9DYKU9UgClFBuIaNqqdDtFcjMmrlSW9fSAAkTGgiqhBY0KLiVXRXaQUumuAV33iPINd4yRQRthFdsKGU0YsS2Jh5gIbLrX9ZfxhRFpGjBCPB8QFptSRmqKXZJCVnVFaHoOWkxtgeUJS5FaBq5MvVOcZuC6NUI0zxemQcLaPMnRa4Mzf5ADEdQnkQzavddGgVj1ChHwzm8okT0MlJ69qkwtvxsAswMlTd3tCZFqzHJamYAb1JD6oy75VSUn1Le3qogeoWs6XQVWVbCZeiqLWhhE0hVug0f3u4SPSslx9IyUkkUv7IrssoZaoXcbIbGvLggXCFxKf+lkQp0XjjBP+rRdc6qSex7dv68qCB4AsWTyIKbvBHFpMX4YqZj5sFNpFKlikKy3+Z2VuR/52+oALWlptQ4Tw3C5qjkQF7xNhkGoNetSf9YYZnPl+GWtsa4VzlOC7KdkssBdGuDhmtRyr2eZXlrtWWSHgZnWJbV65Wr3cHQzmqqMZSVMnKG6tb2pnvbjolRhWtOqCnjf3yvoKu2M+oMc7XxYOBa0W63VPK6vMHMtiVDzxY0w08T9QqQ8bTXlpTUx70a3U5QXdsdKvIsi5ZCQ6iqhmG4jtCbsfdXj4BGZDth3duGAVtSdav7t9w/FIt5qriwvpWRWw434C4EDOmfeVOIpI64PSUNcXD9yWGLfGsBWGOTM7LjDPVcimoO3oa7j+ESl4n5GeOykpVbQ3YHojhD1Z/XIxFbZgvuPoY6mRjmMZQnyXPBXrsJ9S/QGmaZBrIIQ6ieD/2tpElaUdzJFpi4iMqd9QVSfC0M+lFpFN0mCsjlwUSjW6UIQ6gW7Fq4E7GFmxeKO9mM9iOK4bitz8DWE8fnyMiyK2LkVKUxdHRdMw0P5wHD84I2qZWsMLsg3W7b3usrBDO7z0Duq0lCBAMTOhZD3wu5rV5r1hiMPbS8no9qo1S2yKQWaTFr7mYT03ofLcDoc2I2NwcoJFQevb48ddTjbTwYlLpd+FKLNk0REW7dVSDgwgZvyb23/kzlR6tKqgMl1eimVtrnW+mRrSF3tQ8trvXz/IVXt02qPAY13cKoUQHy0lOPZLcI0evwk1HP40m3uLBAK+sKNyGpCvaxhKY6qXWrlZTMBXO9Cm4v29lWwn/88Qnpjc5RU+Aaf84ekYE8BriR2+saNfpu3D3MRRFd564A3AS5ldQ3AWRKitM2Czz3bCb001rRaNQLuxmYneg7IXvQ7nRjdrxAgZMB+2rK36vVX5ktzUc05QQVvCFcUXiJbR7w6mdzFiPiW0yvH41HUUnNWUQRDO3o+fj07exilgjs9KEUL+6H5XedTzHSlhdHdGTLY6yjZzv+BARZ0sURYvDiocmlmFTEDwlG10HhDb5Er6lcDLJpjR23msFIdCnG2Xs/7Y2YIj5BtkZ7SYBTCikDd/2VsjoOFXneHSmXPuC5dUVpQN6HyKChRdb40YtQ8rv/ng5OMHglU7wJd2HIBtr+j2WrO7S9dII4CcPUpRo91aSkhoRgpr/7jyLVMUPedgrYnhgOvx8IyL1KtzGuYYwb1R59Juh1aNcJd5P60rgn5kIbx0ngrxpAc5Cwi7eC0okA0ekKuTJh7FFztx+aO3DoDU3d4RYXUhk1jWhOa9XuUwBm57Fxmt/hJ4Pqd2dMdaUWnysFFbRQFGZzq30XSS4PeZEPPNvVZx/v7diWu1onntcSim5OWFu+D1W2BjDBY544uzA409jH1nwOsBtTRdq3q+awtUxGqMiphp3UL++KcfufR6h/TPPfL9RHseEGetRKTDXrNMrKXEm6tqc8MLSkcMBH+tN2NfXSSd7VG+rDKlOfABa9wgeaWqdRsfjZvTfhVp4NtXnNNT7y9hadf/37/K8dqtpkUPEWFpIlIKno6iiXZH8481Yf0u2WwNs4oToewfinAnhvcnuaegsXfu8XmoX+uNTzZ0C9raq7saWmfheiqY5yg1m3FLZbNmojVdPi31pNwpY+3jm9OlvqEaBRyPaHg1mpUu7lskm/4u2u4NUxdG/VLP+bwBTsN9Gpy2J7C97/PibAjC0lwX1+s+DGnUt9A3kJZN48ix7I26I/5VG/iY3AzKsjQc+/BDJHR3ZEjFBwsnHfjAnw4ejlyzfzPwexGU4vji9O8b8e2LtBke1700/srvoZ6dlLF0cZ+pBYfqcfPv/4+f4CH3BfaFRTYV6Yot5LMQG+OXrp44EccmBxaVu4mN/x+8dDD5+P0fVfeW/0IfLVPkGrLOtX7AgMBejhGWlbbE+vpWaeS/Li9K8vX08vKJ1bgIsvPw6f+zh8h6T44N8woqli/OJl3IS+eUlAXmr+xnWYV3b6JEby9OdzVxrPH/98//V4GZKnF+4vPA/xGglRCm74ijpRyHZYH2MCtJ9RBF9S5vSk7QaM9cuPN8V0MU991+P0G5LH4et/vy3mePHfI+bn4gu68VHsjgL6TKdtdvOdiAD9d0rUJh9+Q7t+cH93Y+P49eIdeeDDw8f3Czgev3tOEzx8fxpl+JK4jc0ZXhYZj52xjxiCR88otx/xUXgtysWf9BM/P3z8Nm9AXnyOnE0xJLqD7NvGDK9jX71/9TJG8FlkYKTvFjJ0H/rzf8dSEk7fMww/IIbk5sjcbDqdeMXkSb6PZ/m5eEOfVHRQLaWOlInW0vCpn//714WUgOMfCQzJ+EAy3Kxtoc4MwUyGJ8CAYsRJNW9CR4zMLCuVYDx+IJrqBS+EMHM66y78gYhe5yY9fNOHqJNIEmCcopQ/++QXU1BzGLalkQf/ghlevP/x+PjzK2H8OnLin4ghtgE4ktokbps+RGxMhjsCKYpRRcunnesp7is6/Y/D8Dkeie4wdX9++BpTPo7YGhLVSM+eBRxxmLHJDi5ORIJxAb58FgVDUYLF/A2W4X8cgj/Qc1/8CvgckiM/D7lnZrwb0YYmA9cn+JEeg1SQxhWgD9qihiSRLT39wlHSf5HunT6iQ1/RkQ8Rho8kMvVu5L5r/PGlDab16a+6zR2BFEgQzuKv13GGeHThHx5+O+UyjMrQA1LSTQwNzXD+CJyjqRhf5zH8uoDh4b8sQ2zXNlmTTxguHIG0pj7wc0SsiNRzY/txgbUUWRo0MsPDP7EjYZVlkw/Lku/7LqehmKPN43gcZ0hGF3J/hEk0BsJRm2SHN8EEN5n2xrOfjJufz89XIQ7H4385Lh/7gONffm71J/GPn18fEvzAInwI3yK6wUbrud/iVZX2agR9XWULGoz5Z0QjXfz14d2v/+go7q9v7z/8+vnz3btfH77hg5k34TsUMQypgZiJeIplGLocXUHSJBnjGDD8QQXfsfT/9NQ95OGUHA+cBRmGG7bXkK30H1Zn6JOknAfX5WPTuSzYYbhhq2kdf9Exc7SqmmKW+OEuOO7i8xeWwnwgJcVX3XQPHtzVFbU1qzAkZv34M5shvv6QmD0l4IG96KbfrybfdFzd1iBgm8DE3oevf12sSlAKRyEuKcD+ZgSpFQfr2JoApIRz/PMQV6Oe//iwMr8MJoiVdPNPB+A9sNa0NfT79nLAz4/uYHz9+PnDl+PV+T3gSxJfsXFNn9gaaW1bQ9vTi9OvX796f6xIz+P3inNJAbvOE1vz5uURwbNXK2BVNhT6ngLYffvBtaGcK26SOSGQuCazNjZgiMG/opBllm1xEy3iIaTl+z656+LJIWbtTD3eZPDbQNCmgncLOy+eDIIWrB8s9U2Ep4Cwr8z8trZGWMvQ7XINNDvHibgvHt86Z+nfD2dCe/emB78fdr0sYY899thjjz322GOPPfbYY4899nhS/A/wGOlvqgWOyAAAAABJRU5ErkJggg==;" parent="1" vertex="1">
          <mxGeometry x="547" y="184" width="35" height="35" as="geometry" />
        </mxCell>
        <mxCell id="SQ3NC_S40KwjwUbllQxm-34" value="Jira" style="shape=image;verticalLabelPosition=bottom;labelBackgroundColor=default;verticalAlign=top;aspect=fixed;imageAspect=0;image=data:image/png,iVBORw0KGgoAAAANSUhEUgAAAOEAAADhCAMAAAAJbSJIAAAAxlBMVEX///8lgPggb9je3t4fbtcid+ghcNfv7+/g4OAhcdsmgfgef/oAZ9gngffh4N4ggPnM4P35/P/S5P3I3v2Cpdzn8fwsfOUcb9y91/06kf2KqtzC2vxGlf7P4v1DlP18odx1oeVan/7w9v0TfPrl8f6jwO6zy/G60fJFiOVPmf15rvRrm+QAcuyBqeje7P2OsemTu/qgxPs1geUsi/9fkeGqxe9xqPtlo/6Krul0qfuWt+qVvfujxvuvzfwvjPxupetPjeXP19+ZUdU4AAAJsElEQVR4nN3de1vbNhQHYDu3gkxwQpqmlMCow6UhBbp2tKzd2Pb9v9QkOyGOY8m6/GRLPs+zf1fe50hHji0dBUG98XA3qflfrDmuVp9PW028Wh314zYTp6ujTj+MT0dN/yG2ggIHvX5I4nlLszhdzQYdmsNwGC9bSUyBaQ5pFpctHKhsiHYGHSpMiRetI04vGTATtpJIgdRHp2EqZMiWEZMN8FUYkujivOk/Cxdb4FZIicvWEJPLWaeTAXNCVlFbQqRAqsuA+RzS/5YnTf9xiEiB6wzu5jAM4zYQaRU93ALzwmwuek+c3u8AC8IWEBMKHOSARaH3xKSQwX1hGHpNTIGdPLBESKKP3hKT+1khg2VCWlF9JZYBy3JIB6qfxJIhWp5D+ktj4eNcTJ7LgKWj1M+5mAKLQ5QrpFn0jTguHaJ8ISM+NP1Hq8S4fIiKhGTxwyPi+PmQA+QK2Vz0hygA8oXEI+L+o5pcDsPQk7mYPPLmoFjIwou5KAZWCH0oN+PnmQhYIWTEq6YJ4hiLM1gtdJ04fhRnsFpI5+J3l4mPhwMxsErIIvo+bdrBi+oMSgjZLw1Xs5j8rAbK5NBZ4lgGKCWkc/FPB4kMOKgESgop0b25KJVBaSElJk2LCiEJlBY6R/zJ/zWhKQwjp4iyGVQREoeyKFdFFYVsXbxzpNyMr+WBCjlkz6iOEFWASkKWRRcGqsIQVRNmxHHTvuBatorqCF0gXr9TAioJWQyjhomqQFUhocQvDRKVqqheDpstN+MntTmoI0yJX5oiXh/OVIHqQoZsiqgD1BKGcfSlCeBTX3mI6goJaYL4pFpFDYTMWDtRE6iZQ0b8VS/wWmuIGuQwJPGvOtdFjWXCVEiJv9dHvHmnUUWNhFkWayM+6QONhJRYE1B7iJoIGbImom4VBQjD8FsNxBsK7GkDjYTsl8a3v+oA6mfQUMiQtommQGNhSIZ/2ayoBssETEi+/W0VKPHxxbbQIpEOUVOguZARh5aICCBAyJZFO1m8+QoAIoRhHJIXC0RIBjFCGhaIgCKDE7IjU+iBegsConLIsvgeCvxqug7ihdCBar7Q54UERIxxWYQNUbbrtB+6R6RDFAWkOfwcgYAsTiHEW8g6uAZ2Dv+ZL3DEGEEEDlGawd6HNyfLGEZEDFTsEJ19OH4TnCzpQIUg2dsp0ywigYMZBVJhcDKPCCqNpkTcOrgBdqkwGC1x5caMiJyDDHjQ7R4wIZp4ZpBBHJDOwW53I8yIqHUxutAkQpcJCjw43gqDyTwaospNGOo1LYJW0U46BylwIwzOlzGOqDVQrQBzQkrEDdRQY6DefsLOwQyYFwbnc2C5ieaKROgy0Zu9XQN3hGwu4h7gFIkTbBV9e7AG7gqDCbaiKpQbNLD7GrtCdBal+zKNPvWQReZt95gnDM4umiAiM8iAB8fcHLIsxiAfO4Qqty5OgFW0CNwXAomhJJECcVW0CCwRsrkIJFY384MCe0cFYJkwmJwi18Uq4ggL/K0ALBVm5QaDJHSgChuInYOB3QKwXEiJMW5dFHYROYEuEyVAjjA4O8Ut/UNB06JzYBXtdWYlQJ6QElFZJALiyD6QKwzO5sA3cJyBev4vbg52OEC+MJuLMGJZLxggcFA+B8XCbKBaJJ7gqigdozygSBi8hxKLA/WhHqBQiMwiGS6WO0eJx38Avy5xh2iVkGURJWQHwvP/6+v+gNtvRRHYEwErhMH7lxj08Y1tgct9QU1QKaTAAaeKSglpRSWYdZHQ57cf2+1ho0+YDHa466CskA5U2Pu3MPeEmu7Hw0RPCKwWAivqMPdB4wklHMwG/4mAEsLgbjHEzMRhbitD+3M4+tr2edjCWsp+ReVqabYeAoTm6yHBbUbZ2RfWvmcaUnimwT6XCoiNPZdCX0Fp/7aA/kLc/xEMJer8PpxY/n2IfVOq9Rsf+NaU0+8VSdR7T2P9hSLym1Nj79rEbd6xn9VU35dieBV97LGfRhXeeQN3ulV0sZ9Av9/vE+1/t6hsDY7dByX77QmiS4WL6ptdzpDbTCS/HyI/rklcXQPeKlTfN2Ai9YE0I2I3KlR9x4dlcNjYVgXBXowJ8ElG9FltP4t17aeBbhkSf/21SxTtiQKFGtDDfW20yCjuMQUTuXsTcc+iyptoPdtfqrNL2PoeYdQ2aAbU28wO3+edJnEtHLF93pBI93lr3hZpd68+CEjD4PZdP85bRCY3KN/YOTPDigzsvaH2aYt1Fi2dewphQkMgfi5uzq5Bgp20MAXijqnnzh8iNz4jDso6fIbU/PShBWJ6Dhh23gl1YP0W0zCik53lBp4CxvVVwM1F4Hn8MB4CGyrhiKjOH3QOIoFAIqxrREzAHfhAzVtgvU1ifKNIl/rTsA6DFjphGjcygwlJOIyttMCGEDE5tNXGPG3i0riQkNheK3pAnxpEvzabLcwd6Llnu0e7WWtPY2F2W4Ldaz1Mica9L+132TckGvYvpVXUfgP65nrQprdd1NFh/6lvUG7M+gjXdRGE1pUBxkJS5w1QT/pEkxzWeTlS7T3ZU2Ct9+nV3Ve/dqDGFTomQvb6uP6L5jSJujmMGrjyUf2eIANhM3daahH1hIuGLtBVvJBMT0jCBi9B1rjQSieHTV6eq3K1o7aw4Zu6lQeq+ihtag5uQvqKVU0hiRq/31lxLioJHblp3eIdliRsdg6uQ63cKN20SovMQ9M8FkpEhfuAw6EjQEv3AafLhCNAJaLKnc7uAAM793I7BbRxt7pjwCB4nEl9X5QVugcMxnJESeHio3PAIEikBqqEkLhWZF4joVms7FxQLXQXmA3UqizK5NDJIZrF+PGwKosSQteWiZ2ozmKFkH1dchlIic9HYmJVDl0eolmMn8VZrMqh80BaUVkW+XNRLPQBuCZysygUkqi8U4BrkdwLsigSVp9SdiVEc1EkjHwYolkIiDwh227oxxDNYnzPm4vcHPoyBzfBiIOyucjNYbT0ZohmkXCIHGFVrwcXIykfqOVCH4E8YqnQTyAjlvxeLBXGfgLLiaVCv6poPlLi7kDdF5JYpluHq5FcFh/g9oS+zsFN7C0aRSGJ5l4Dg2BaeAzfERLJhjJux/TyKN+FeTeHJLrwHsjm4ixH3M2h10VmGzvEHWFLgGvietHICQmR63nkQ9BFY7CuqFshiXV7PbgYtNx0MuKrkMSnLRmiWbwSMyE7AnrRogyy2Cwa6xy2D0iJK0bc5DA+1W5H4m5M00UjO8vdqiKzjemKLRrp3erqTZ38CDZQWQ4NOua4HpRIcxi/tHKIZnG1OurHL63NIIur1ec2VtF8PNzVDfwfE/diEYEtVOQAAAAASUVORK5CYII=;" parent="1" vertex="1">
          <mxGeometry x="483" y="185" width="35" height="35" as="geometry" />
        </mxCell>
        <mxCell id="SQ3NC_S40KwjwUbllQxm-35" value="Prometheus" style="shape=image;verticalLabelPosition=bottom;labelBackgroundColor=default;verticalAlign=top;aspect=fixed;imageAspect=0;image=data:image/png,iVBORw0KGgoAAAANSUhEUgAAAOAAAADhCAMAAADmr0l2AAAAkFBMVEXaTjH////ZRiXYPhf23NjonZLqp53YPBL77evaTC7ZSivYQRzZSCjZRCLZRyf00MvXOQryyML++vnXNgD44d7wv7j99fTxxb7mkYTljX/nmIvfalXdX0fjgXH66ebfblrcWUDdYkvbUzfsr6bie2r11tHgcl/jg3Put6/po5jgcF3onJDrrKPkiHnts6vVHgB4fIR1AAAPTUlEQVR4nNVd2XbquBKVLRIhD2AIsyGBhPGcQP//313PeJBtlUrm+O6H7rXSjfFGpZpVIkbnWMzGy8dtdT+e/cM2wME/7+6r22N5mi26/3bS5cNny9tuyxi1Xdd0LItnsCzHdF2bMrq93JazLt+hK4Kz62rrUdt0OGkEdwKe3nY174plFwQHv0fK3FELtQLNkcvs48+gg5fRTXAxv9jUteS5PWG51L7MdW9LrQSHP75nOyrkUji25z+GOt9JH8HF9eCpLV15IT3/qm8ddREcH7WwyzjuxppeTAvBxW1EtbGL4VDrXcsyaiA42H24AI0pC+56Fw22A01w7DOUWmmC4/loSUUSnOx1y2YRFttO/iHBgB5QNi3bBVLkdItaRQTB0wFKj3vH8RLKkHDmI1wcZYLDowcVTvM7eFFfQaQt76hs/FUJbjywanGPwecGDM6PhOrm7aUElyOwoMX8jI2pRDD4uKWmbVQIDs8MbvesQ/TZb2WLydlRxfIrEHyAN1/4enb0dgtPlV8Ah11fQHDoU5WXY7GAzZQ+nIH+AS8ilOCcKRl25xh//IQjGLioy24J7tSUIPESNT9AEgxE4d4hwRlR1IGjVfKET8UfKAfz+7MrgtcPVRWYLqAxxSiZBNybd0PwrvzrpzvQwJiJHNiq4TVVCS4OcNuegj7d5fVIA0Hi+lPdBD8dRNTnPp8zt3UQJA6R3YiSBMceQrRGOYkaatiEITg76SR4/cC8jJ33Ig+6AuQPOYsoRfAd97N7effj0bCVYVLy8aOL4AZnvPh3/mH1MsrJFsaQyYRQEgTXWPeq6Hv8qZFRPppB9TTd6CB4x+o991Z43rLmeXQI17C03SC2EkTzI27J8RALhHcyjnD9086wjeAab7fsUii+Edl6+7eOeTNapbSF4Abt/QfvXkr7zQQ6y/JVHXF2E7+5HMF3vPNfJSgyhV7gmEzUhIU1W4tGgnMtbgct+xxVZWKGgtZkIZvQbPGbCJ7A/otLBR4rraRtK3JBQ9/5XdWb/2jKCzcQhO8Jdz4ThPy0UiNaldRMbEj+qmYUOW1IC9cTnHKwf22dg51USSmyyteX1QyboggS67v6+u0EfYX4yBO8PfGqsVvRJ0uijZsyQTL6Aye4UtkR0XYbl1QTrT78Wng4i2X4Vz2iJvZfKMG5koGwI4W2KbwpF8hPITXDDyLWQHh1if0agp9qBsL9jR+al8BwY1Zwycm/m+SrxyinqbrTGwkq5obMOICZ5P2fkchdHOf+jzRcxKUUrT2E4F1RWszEMzzkfp9kVUt4NnpZX+nfcG6TK/a7hQQnql+VrGBhCcu+doxnGc3NKioHXErRE5a6RQQXyh62+54+9vmuVTsf4lkIfW4e5dphDO6KcokigmflDGG2GjmV74n4PXd5TskqetsZRkfB9wgIztVDpCxweGZeeM3mT826+QzoUMXDEEzgdlcJqgto8A1ZOjbrNXBqqkGpw5PfoioNCnlwuyqkVYJHRAqbZU/5SWXUravKJts0n1P8wZj6EKPqr1khOEYo66fGfxq1arCUIPatCxKMT3t7lXx3hSAw+1qAmUtUprEIK39B9ktGKqXoBmBlVOAXlgneMFKST06sY0m3av382B8tSjC+NGOXExglgjhFlg+M5vEvJfZjIuzDNS5ZSXyOi5XaFEoEL5jWyNwWzPopWH06IVrjkgQjbX0Ac91EcIZaQLcgHpGW4WYtv0hnlq2khuraR7FyWCT4hdrkXuHRUdQuDCUShFqmYiXv6O5aq+jPFAieUP58aTWiV6UNvZ6hEFe26CeqEhnBK+yKAkFccbL0slEW0K7nF6nRaqiBL+IXVEGBIMbGk7KERlUks7FyYItCDbRDGiiuvLXPE8SZ2TS1kiLs2vIa2+aDXSrIuCnnfzMUbG+OIG4HEvdRfNEhi0oqDThanAv+bKFbafK7MEfwjPOTvJKFnTJCm3tYV6PidkmACNcSODsRQcVEWopq8oyKEoZ53NzRWvT3PX4Jnym2J0Gk+rIrwSYXxZ95XN0sxVEAUtmRgnLLCGLb5KpRw37bzM+Y2OXqdgJ0UJF7m4wgMtgUCNu+7bTDiVZqo8l/QC/hM0jJCCLbACtVTsN4VP5SwicTZ9x0xIWZV5USRPYac6uNjQALVpdvH+Mbg1PxSQkinVyzpRVADFaTUtTQVpp5+QlBtIpROunn1LqqqEpThLRolxBE5grqkp8tONQbSrSaSd34hCDSi2lITDRhV+/Klcv4YKRhYUwQ68IzUCN8ho2odBgDe8AiSxDFBJEiryihxu+l/r+hXe7EtYoJYiVU6HG1Y9mQ0ECnnxKPOyL4b3SoYQwa4mG8jLInQWTdSsnKh5g2WU+8Hh1nBJGBhDjokUHTERbktglea5MRbBv60gJxkVoGTcoX0zYTIQ5HQ4KiBk4IyrG8HpzQdYrIeIUEVfsYE6gaiRbg02tRtBkS3OEc7absNQZoSxilzUOCSGGvCcvRQGuZKGdH8IcW66JWLITN6yCE4SbBVx1ra7hIoCv2kXonaMe9LTmojLoTJPIw/0YEkR1U1q79XZWAd9bCvDJB+0RmbS8qEsgz9yHskCDWzLtSp9wUMMQf2ghMPUGLejWlrQkLPMHA3ya4xhEiONiiC1M8Qfc3IIhqrCDClK8m4AkGcQ4xgMcuqwS7GLmoiaDlBwSxj+kzQeIaBL2V+yyixJsStLXps5IJ7ATBnVYgHZoJDXaQ2Ccyx7q05eYDbdDgyQTuNkH77J25amjZImEhlLzpKgJoB77CFPz672SF7X5Tzoq2Ad9aGaYOyQ5f8O9oHDiu9TGGcyfozEdndkKDjgmCVeKju25M1bGDzdChRAk/E2Q8TzrLiyKztcm7+WSPf0pdrwQO+L1DwhZI8o1/SiemXseAsoDgVstTDh0Q1DTdaq/lKaoF0CZokVBdBDuoTuia3rXXsQfTUQY68abBjQmx17OGql0I9dBhBEmkRbEpmRhNxwdUgC7vJgjsIMCTofW3gLhKzXj1aFChlmnLL2/gychrKx7f4+IKK/p6y9g1udqAG6P+3/mndAQU+KLy0USUPpuefi6c2Wb5U47OEoxAhYbc7D9vy6htQX7OrLMGxINPYzCcvPmstJTiY/pqKJxz55ZrM/d8mzxbMuRVbBAPAiL64tyUwbWwlBrj3mWabQrvLGLO8X1Scnbl216CiB6Qk6nmz4aTv9lSmg2ddSAsIg3DRzYb7X7HAkce0PDsXiFZtZqTOqefO/Fs12GamhH8keNSb7uZ17UJAbpC7AkoL1p/1mox/r2Q/7Qk8Vf/fd8fpwbXCNJAQ0+gzHZLU9pCRxJ/MW5z+yD1PvYJq01007QFBCSO8qaw6lLzgcfXAJSpdqH1wR4sIeQKpKg+CKrwqreG6gLIDY8qvLAavafWX68NU1AcFdXoYV0WwjObLwQsnx91WQD7ZBjyoiccgMdU2RDe6cRH/5IgsF5BVXrVytMwXgng+eWkVw3al1mduvMqTIG50rBqQrLJL9Lgzr8iuAMuRRj+qHT8aguMgFhCXzTp+IX3bLedH+8G4K6LtGdbYdBYN/WkFoBnpWRd9/BKnNV2RL4DwEfWRmfNFU++uC+3FQoja7OTL4YJz27ryk/IYgAvxvCIW/QPlTPmzaNidGNow9cgTnNGBFW6mvlIe0WpHtNvhWph7vygUrnYObyO4FalWyl3AlStnGqe314EX6XdLGkxw5zCtswXQamabc9zBDWMwuodCufoa6/S+f9FcRKCrqaNHiEtpGiaRtI/pIf+0nky2OMhfUN5noyGs2z9QmUiEGq2b/9QnemkcqDUpS+CwqtVp3LB1Yz7GLwGM/iPL5irBh9o0dmRlwrAw0REk/Hg8317TFA42xDscfeXYO5aXMx80f4SZOL5otC0VW8JFipgiBm/vSVYO+MXuIR9JVg/pRm4C/tKsGHONqz81lOCpVm8iFn3PSXYOOseFDX1k2C5DwRx30Q/CbbcNwFpKuklwbYbQyBxYR8Jtt/5ArD2fSQocWuPfDm0hwRH1eI64uas/hGUuznLuEoytF/WTiJLUO7uM+nb65z1+4sgWb+Uvb1OWkgd90WQ4yd//yC8IaUXkL9B0jDumk7vvRKQO0A1jGJ/OWC3uGKvD/kHAN7Dq3iT8r+DV9ddVnsX9lrTGczXwK4976D3NvMAlKGgVuQa1XeSN9xHrzSCls6GKMiffcyBk/qenXqCaooG24eoMq6W04YvbSBojBVuksPOw1UpxH40OcVNBI0rfA3Vh4rHUOgq+2hsz20kaLyDBQY7MuAG9qFY83zTZoLGBiox1RvCYABfSERb5hG1EDTWUJHBzWwG15lp24G/NoLGHcgQtwmhW9BunYPSStC4AGtXqDlywCIsbe+sbido3GH70ENYQqDppRJzbCQIGisQQ8wZSli/FZOZqihD0LiBflj1M5SwPghP6rInKYLGFeLTtNz82QBQAfZDru9fjqAx9gCeN1UcQ/YOUGecSSYtJQkaM0hfsdqRgwFATBwuuw9kCRqLg3wEzEcKp9EhRyNcX/pMgzTBwFzIO6bWHnyoYkrkRYQBxpwBCAaqRvo3dqAMF/JHP7gHOVYEIWjMuLSvbxGQvf90pPmZ3yAzBCJoGDtpMeWQ8+hLeSXNgMdPgQSNOZP+qT3pnSK/uy3w4VMoQWPoSztuLpdaxIkjLfj0C6yewQQN4+HJLiJnX61Dgk4+lRVPx7u2PU0LQWP4h8m+k8W+GuvAE19a5Dk7q8x6USEY7ERT2upblN9qHJvBm0Old7TrqEXSagQNYyMtp4SbjK/KI7Y+52uHyR+tdTzVgfOqBI3Ps7ScxkPS6Ha3eX88ro/3zW7PWP0gyCos76gcRSsTDNTDVlo9xCwdM65Im7ALHTk7INodEAQDFbGHUVQBp3tUGgtFMHBB9vJqQgUW3SJT5UiCwSoeWGcH1xzmo5uN0AQDbb/7UJg00Aruflw0zBLUQDCw/DdTt6RadHTTMsNNC8EAk6MHmejWws71jrpmY+kiGISsj4PnaljHgN3hqm8Anz6CAYY/B89GqRzH9vwfrcNqtBIMsJjvbKq2kJZL7d1c9/BE3QRDDH7PtGEmtwB85FJ6/u3iFrUuCIYYXNd7j9qtXlngv9nU26+vXU1v6YpgiOls/rbbe4zaof9pWZxHbIN/WVbol9qUsf3uNu90Mk2XBBMsZuP5z9vqcvzyt/sAW//reFndfubj2Qumlf4PJ4IRwu5/F9wAAAAASUVORK5CYII=;" parent="1" vertex="1">
          <mxGeometry x="420" y="183" width="34.84" height="35" as="geometry" />
        </mxCell>
        <mxCell id="SQ3NC_S40KwjwUbllQxm-36" value="docker" style="shape=image;verticalLabelPosition=bottom;labelBackgroundColor=default;verticalAlign=top;aspect=fixed;imageAspect=0;image=data:image/png,iVBORw0KGgoAAAANSUhEUgAAAOEAAADhCAMAAAAJbSJIAAAAb1BMVEX///8JnOwAmOtEqe4AlusAmezR6vubzfXF5PlkuvIkpe4Tnez1/P58wvOHxvPI5/rY6/tuvvPy+v7h8fwAkuqVyvQboe30+v7n9f1Xs/Cg0/a13fi94fmp1/eb0fbN5/o2re+IyvRbtPBnuvF0v/J/xoeWAAAFpElEQVR4nO2d6XaiMBSAJSRtiWhbUMQFpdT3f8YB2+mp5qIBstz03O/XHBion1ludmczgiAIgiAIgiAIgiAIgiAIgiAIgiAIgiAIgiAIs7xB+P5QRmFcYTVPfX8qk8wjFUmGQUGG4UOG4UOG4UOG4UOG4UOG4UOG4RMJRVD8LUMJUP8pQ4JwTfYC0A0O5tCNrL0BXX/1rXGH04oprM7tjQV0ozMRXLnOi41vj36euBrdxKK9sWTqDd4ZhhYPyZAMyRAkK624wHgxTOZ7KzIgPgz3POJJZsdHxYNh1r1ZRAdLRrd4MGy+ul/8aEnpBveGh/8v5u+2pK5wbrgpfp5iW2tav3BuePz1Xlbb0vqFa8PN1eMuUtG1YXX999inPbVvXBvK21eu7bl94dhQ/XPcdu/5tBIK/GLI1RuXHnCkXmfaPWDgeysst9rzJlHZtTcq4HrTDW98AjfOup8yVtOfnS3qOScHcnjEnnx/LIMcgFIficb3xzIIVH21lY2RhX+7Z4D2erkGrnfN/hfg+jrv3nRU2aU9b7rpBzbqnEeXiCYaqKlUxwBZlMKjifz+aKJ6/VKXPkFvug7oKVDRXBLRhCH07m7NpLl4+AQ8cJM6GfRs914DfUUkhmAmNZNNcRiWUFXaUfwVw7zPMLoMvqVZy9gWDnJDsV42sZRFi5Rx87Ef3gjAYViuegwjxsRPGRWX2rreDRtUxWGYgQEfRjCeDElJJIaF+l/uSi70SyUOw/S2//sIVmj3HnEYzpKegNgPP2t2PZEYfgwoiN+sNKc4kBi+9AbEXqSeIBbDsqdh2g/XnaVCYtjTfepH6CYhGsP9wILIKn1D4MvzYDgbJqhdCrtIBPRb7/aAl0CX+X4PGHiAK0Pax0GJyF+0DWdvTwDt9c0JuN4NVuTQA93E7Qng8ibogVz5qoc0a8Ico6oGJOLc5YoGQ5SLAfFCO1Kgoazq1YBo4Woa3ARplr9V57jtBOr7RZfZk3skMR5kEfFfXVwzgpv54GY8Kh5n0Wx4GxcRrDg9zPpQWyUU2r69xoopcJYnCNgqUdoJEEMCKx7aFmGx1Azzw9p/XvmeKWecFdsP/eG153AMt822+Twvj4d80HrFdSiGYuyioWAMR682CcZQv497QyjlkGsPU9wSSl06fpV/IPGQ7cYKDh7U8sSEJV+vQbTa2ISVif0TyqgYLzjbhNA95ONL4YipOh9MW4KxxZ+IE8fSFugNRT1JcLZDHy7Y45GKu5ywV6Zi6jL94ZORjhGTd69B82mIGN/k/uGM2nBqNdOBu2UqtMbT7lNiTsNJrZkfEBdEE3l0hnogQ5iZ+sx71zr6xtjUJ9bGN3s0caYN0mwqYlOCsxynITO4/gBlD8rohkOMQX/C6BrAoOU5bjBXy3yBblzY+ObtFJmhhQ348IY/X4jY/IkmfXupvCCkjXVqiKK+KKwsxBu4icMidlJwhmcSypoglm4ik/aOTUIxR2P3EJO1f0Vm+Tih2nc+5R92BeGzGtwhTGzVfsDeZz5l0sVvJS39KfLEzdmmW09RUZgZGNXBT23DpIGhbU0y6V5RsKUzPy+KLHZ8tI5jRWE9CAKKtbvqRrDGy56lxFXQ4LGrsztvcRMX2Xz6/O5oDsBvN5j2i45ez00ua7vJyAq/fh1He8kouNx592vJt3YmFsWq9lW/KByk8bgh2PyM6vdWK2myOAomtnsM2fM36U5yM+VRMD70PCBXvNR8cmZFrHch/5BsvGSbN+X7AVvmVDgtYz5oA/L/pGPxe+Wu8zeN/Jjob0QWrdxq3qwPJfrEu+atWsTd/sY+0csGwfZmUS+qV2eH/hsnf62Wn9tYFvNOh/PuKA8RzYtCxttkcdy/voXrdkWalXmef/1mevuPshx90h9BEARBEARBEARBEARBEARBEARBEARBEARBEMQE/gHjE4RgsQMFFAAAAABJRU5ErkJggg==;" parent="1" vertex="1">
          <mxGeometry x="610" y="182.5" width="35" height="35" as="geometry" />
        </mxCell>
        <mxCell id="SQ3NC_S40KwjwUbllQxm-38" value="extendable&lt;div&gt;tools&lt;/div&gt;" style="rounded=1;whiteSpace=wrap;html=1;dashed=1;" parent="1" vertex="1">
          <mxGeometry x="660" y="173" width="80" height="60" as="geometry" />
        </mxCell>
        <mxCell id="SQ3NC_S40KwjwUbllQxm-39" value="&lt;font style=&quot;font-size: 9px;&quot;&gt;Agent service&lt;/font&gt;" style="rounded=1;whiteSpace=wrap;html=1;align=left;verticalAlign=top;labelBackgroundColor=none;fillColor=#dae8fc;strokeColor=#6c8ebf;" parent="1" vertex="1">
          <mxGeometry x="32.5" y="300" width="320" height="110" as="geometry" />
        </mxCell>
        <mxCell id="SQ3NC_S40KwjwUbllQxm-40" value="&lt;font style=&quot;font-size: 10px;&quot;&gt;RAG&lt;/font&gt;" style="rounded=1;whiteSpace=wrap;html=1;fillColor=#d5e8d4;strokeColor=#82b366;" parent="1" vertex="1">
          <mxGeometry x="267.5" y="330" width="60" height="40" as="geometry" />
        </mxCell>
        <mxCell id="SQ3NC_S40KwjwUbllQxm-41" value="Dialog Manager" style="rounded=1;whiteSpace=wrap;html=1;fillColor=#d5e8d4;strokeColor=#82b366;fontSize=10;" parent="1" vertex="1">
          <mxGeometry x="171" y="330" width="60" height="40" as="geometry" />
        </mxCell>
        <mxCell id="SQ3NC_S40KwjwUbllQxm-42" value="" style="rounded=1;whiteSpace=wrap;html=1;align=left;verticalAlign=top;labelBackgroundColor=none;" parent="1" vertex="1">
          <mxGeometry x="40" y="450" width="320" height="110" as="geometry" />
        </mxCell>
        <mxCell id="SQ3NC_S40KwjwUbllQxm-43" value="" style="endArrow=classic;startArrow=classic;html=1;rounded=0;exitX=1;exitY=0.5;exitDx=0;exitDy=0;" parent="1" source="SQ3NC_S40KwjwUbllQxm-1" target="SQ3NC_S40KwjwUbllQxm-26" edge="1">
          <mxGeometry width="50" height="50" relative="1" as="geometry">
            <mxPoint x="480" y="370" as="sourcePoint" />
            <mxPoint x="530" y="320" as="targetPoint" />
          </mxGeometry>
        </mxCell>
        <mxCell id="uDNDOpZhy8Ht1KEGA2yY-2" value="" style="edgeStyle=orthogonalEdgeStyle;rounded=0;orthogonalLoop=1;jettySize=auto;html=1;" edge="1" parent="1" source="SQ3NC_S40KwjwUbllQxm-44" target="SQ3NC_S40KwjwUbllQxm-50">
          <mxGeometry relative="1" as="geometry" />
        </mxCell>
        <mxCell id="uDNDOpZhy8Ht1KEGA2yY-3" value="" style="edgeStyle=orthogonalEdgeStyle;rounded=0;orthogonalLoop=1;jettySize=auto;html=1;" edge="1" parent="1" source="SQ3NC_S40KwjwUbllQxm-44" target="SQ3NC_S40KwjwUbllQxm-50">
          <mxGeometry relative="1" as="geometry" />
        </mxCell>
        <mxCell id="SQ3NC_S40KwjwUbllQxm-44" value="GPT&#xa;" style="shape=image;verticalLabelPosition=bottom;labelBackgroundColor=default;verticalAlign=top;aspect=fixed;imageAspect=0;image=data:image/png,iVBORw0KGgoAAAANSUhEUgAAAN8AAADiCAMAAAD5w+JtAAAAilBMVEX///8AAADCwsL7+/vZ2dlubm7f39/19fX5+fnt7e3o6Ojy8vLT09MeHh7e3t7j4+NUVFTJycm9vb16enovLy+dnZ2Pj4+5ubkQEBCxsbElJSWjo6OXl5dKSkpgYGBlZWU+Pj6Hh4c3NzdOTk4qKip2dnZaWlptbW2CgoIZGRkODg6qqqo7OztEREQ2cQDHAAARuUlEQVR4nNVdaUPqOhBFQcsqlFUWWVSQ9f//vQdXwHbmzGTSBvGdb/dK25w2mT2TQuFGKFbrw8l6um+Mtg8P28Z7a9nfxS/RrR73qyiXxrPuA0Kj1X+s3Ht4+VBpP31CbhdsV+OXew8yMx6nW5XcGYfx//ErVicNC7lvPNXvPVxPvHTs5P7hY3DvIXuguvRkd8JbfO9hG1FbZGB3wqF076FbMNhkpHfE+s/rxOY0O7sjRn98GQ5ec9E7onNvCgqiLHKFfcI/uwqr7wHoHTG8NxGM2EOh6+jfmwrC0DT0V5PJtizemw3DTh3w5qM/iJvl8nHc5XKt1B5/YZ/iglX53nwIevJYt6teHei15qCjcDz8LU0o01vtquJVUbwWr2udp2ilWqrX4ziu10uVu81ace0tXd5dNJSk0uzlsdd5S/11s5/1h3dQH21hiGv50yUwmIsfEWLb6v2uT1zC43gyu627kR/Dh4f9Iv61BRpBtd71cXcq8joU0e2bZkd+QIt64XmTehbjYPV4E0JpTMCDG23v20SZHI+5/4M88Qyeesg0c7IZ54fbfsPynj8yk/FR6WR1rabN4Kx+0OfPW2a4TVE37xzoBad1QZM/LIuD2s7pWe1vFV/kQuHL/ybPs3zsTrjNJ+SGy5v3PWoZdB9Aq3YDfmxafXo/xeY2GtAIL2b45/M1DONDKHpHBI+9McN453d91bDw9qvZ03oymay/pk4hNA5L75Hef+V1eRnolhS6610paUUXo+qgo5riYaXMit7ey6Qf6vp8uhPWU3PMnnsbgswt8pke9ZZG7qA4/YUTRXGqBiRIp9fBbpZVvjR2LbdJWWx/CBeHEzLUo7Ebukow6viajI5jLHzDUGk2Kl1a1gsHWkr+0+P9C25/kADN85BqLuPnK6l+3sTLPqg8oXvM88ZOm8Mlnxtd24jUvPWTt984gLfxZpSAtLJNgmussbMuvBSayADKnqCpi8awYWI9agbIKOugkA2U0RSNZaU1c178ohpj/ezmP3jl0yz3iSWVc4JL7EWqMTbLZfuDCJf/ZNANjgeHZFDDD/O8ISJOcOsZ/Y0WKruHD/Xq+E25tLHLnzbhU3Ttdb0qGU7QwrlN1RjrBPG7+dr2mPFld7GVHGYtovjvFa1A2SCeI7BH8UqGwKT4toZaProbLjbLw8zWUIKU/EriU1jOJU0ovfZCJqGZBDNaMS4n+x9w1Eyf18vAVZ/sVZqmvi3rAbV7RRNKb8EjslX6CIMILWsqPQFUsBIpadmRMe3jpTmoV7lx6sBIiXSkgOJmihM7MWnfSm+1f3uyG901Wo7heoll3WTR71QUP5/NCypPzmL7wzyTaajY5XGLk7PVJrElwK8iXDu3fZBBIvphTuTTwICu4yV7/1TzQfgBPVaH1xq9IGrsGjUJ1RET7ceC3fH0T+y6+bHg7wkLkzFW5Xrl3SSQInKVNkGxWn8/L4ZM/GY2k2IM7SVTlpa8mI08sXFNS0/4s4Xfu23htcUA/Nr98emoZfsPPSWRJfXmtxmbdNmLZk803OkbEo0R3RoUZvlKjNCXn+HdFwxlPh+uOUCsScktRcIvZaP48TN6QTvDzoIn/UXF5Od4ASLdnJ4bXvxsOiHWK16vUHVFjawrLNGAaiDxIy9+FsnnUWOg6gqiOGHYCxR90JXtxe/Zya5m8sKumMrzndwIanj+Kpl/EJbfECy8rRryWUgWOgnYo2oVLlx4yU5IfnUUYu/UCkM1FS0sajKwOfgJc4rmXHWF49dEOaDVP02rByVxuoKY9Q0ujLhhBYRQMH4TYIxtrlJBj+nDCEf6flv+E2ZBoJkQiN8AVbWmZIKUpT3/lM8somWYr/lC7wGN8CD8YHRtSbXJWKvs/WRPJqFyNveYiQRVZAB+wAvCzrpeoLYiuoJMPzr6Mr0eF33k59dDOkEwoNUwKtn06eBHYxjvwhNz8ntExthCdjFiTVekXouDH31TNjXjyQ/WGMxUNVLsaVmChK4g64/clAZJP4XH5eFXWYARusNOVXUZLi+CkrgGRH7S6SmVXOXgB70gU3UCNHSuOKsVXT/QiSN5W5n51bE+M2aSBtoyHJ3uQeTja5pARK4Xa8Uz8lO8oJUpjFtUHY2jriC+D6nKoaa1uCgy8XMUfNpiGM+wZumCBbEuiXFCcgZdMU+QhZ+zsYGk/gjqYEvJzz3S/yRZXDJ95BShP7+6ZZefMYa4M2/GIv4tWfxy4MSXXxNtLkKi5stUFxBZ9xSkB0ZzIvKz/OIvRewFFaEV0zflGvQyxCvS6oGMWlLuvvzGiMbkHw1U92PssRHrnZ3+4T1t8ZHghVLFlTG/csXTZWrAgklj8hqZ6GmQvDmJCypGRT5+qVY9dTTTOqaUn26yPTDza5H+qxJnzMNvQ9UAKlh+tRXC1/UCAeIbLtW/BuIHQnuwxsm4Qbmt6IouEVUkcqbYE5n5CZWQFaQ/prZ84UQskaIVIsQ+VwR1Rn5KJSSsv1yYdAVUrifQOU6s6+D89A0uKJhmSPmdIJlsZIqnH/Cq3DALP2clJHQODjZdgQtoG2kxfEt+psUEG8MtTfUyeMvPW2oOkgkSkF/Xug8flfpuJ6ZlCD9hyoMl/MKtP59KSLRvzubeN5EdmLySrFKlSsyL39KvBLm4AMM0pbjLoF5uk5jdREQrK8aLn3eFNeB31BUWkw2s3y/xr8qk8OLnW8hahPy4XYew4Nf9LH0in5W6gHvws7Up4Cb36Ookke1PSpu1+/AzbXTheuLKg1SPzP8eP4N7D6pWLwMgub9XWTDcj597h2eF2XkXO5vGX+Tp/lv8hshk+3DoClrE9LC96AjiQMj1ob/F77HQRCFvh3vPSr8vH5AIH7k+9Pf4He8EnINNTy1HZImY8xBo+kiUVsHrsxR+hTKyLPeae8+qV8+qk1ZmiRqV3AAsea/6LJ1foVBDUbapcl+qBS95FjIVxAlK8qCbIZsuQfkdPVi0FaMvTtIaDR2eReUC/zcfAl0TrDt3YH5H9x54B3tRktKI1dkKpaJV7KbE5fYsrS2D84PptYYku2r0h99mQZnqRsl3RiWwqchfeH7HQXPbS1xB9GWc70QdDHETVhNkf5K7N27BD7n30gyllRJnIqw4Uhwc3N3Xui7D2/ArsKpJMSZHvvX+/N/0sygb9+toW/Rls9Ct+NGNJ+IEowGu8yhYvy5Nj8JWJ9/BlpvxI+MWc8y01Py8dio0vPOpOSSwLUF38Bf40Ql6iaSxEesNBaso7rgq/QF+ZCbOz/9dYVlDR+wSVg6sE3e/Ez+6ZfyiKlmy6tVlIDvqGe7Ej253vIQD+c7LvcvD0SvB78WPVAJd78V3Brsb070oW5HvxY+Ey340JTdNDM0A5Erwe/EjmvJnsxwLYBxv496+V8QbL+/Hj4TLErVaIMw9M+xPFPbveTfnCcSP1EomTHGq+0/4sKQRYCW4Z4PjKGHYhuQ3T/wJbXB8Ne1SbMPKcXuKJd1JORc/spelkfwTLNU0JcPLqJ7B3IQoThsL+filLZUUvyKU91NTqhju3DDVXLFWRvn4pSV6ip9wKoCxxyf0nGaul1NesGvy8UsHidL8Cs+4es3YShtu3tNzI2iXYz5+aQNtTp8H+R3vaNJnsNhaaT+Bu8fl45cWBLTJkFgNvrWdv/SMPKcW/vywPisvP6IfaLmnUjC9sZV7QM8JdDuRe4jl4kccBVJrjg52+IGxBBV6TrScRdm1kYsfUeKkWYOrcXrHpCvgzu9uMl8BI+9B+JFyZFJt5zxOY6O2j7kCtsy47lZxtJzIxa+v3kvriXjGyFaCCj2n72o7lPna7H7sqlz8SBYwXc4j9U9Kg+4OFQD30I4jvMsxCuQ/kBwS2UoNfEAI25GgcBoisXLq8RPI/yMMyE5UtRVwEhubyfZiaRX3XXMdiB9ZfiQQv7Dys1eCOzdknN9UGH7FN3jzC4jUG6vi1NY5qihXgp9w3R8Xhh/NwRNJMad/1Y/ayFkJntrfGIYf3euXHiBNdJ6U+U57/Rtbl54SXoajJJEw/IhsJsuPCNfvWmx9W5pasXEFrCJOmxZB+NH+baTEg6Q/L76ho6GHM5AEJzm19ILwI/OENhIh/PbXP+itlPuqNoSdlLnHFIIfDZDRCDzxHuaJp6uaUfOckKndAMs2BD9XHwYS+035hrCa6ArJc0LhB1yhE4Af655In0O+H/Ht9YYeqK8O3F70hNdrfn4RLT9iEQey/ubsBWnGCOv8DCOG4nkP+fmxeAB7kYQfP52jrPYlb6QGhlrxvsrB4tz8WAM3XgQSIf2XhhQT+saP5wQ/tWbv5OVXZCIezBQyKJhA0HeHftuTcCO3vtkqLz9mhaAaHmJ9C36s2nNhs8OJa5e/kZMfDxyhwZPJJxWt6z0zuiDjuXX6i/n4ccccFkESmSCHdGEDOhlrdzV2Ln6gsS7UQuQ2WoWBxyGFtnhNDn7PfMbg+UJk7EjNUBpPdzUea5xg4MuvxOWBcCIorWDW49UgtcWwtW3ZT8VLPfmhTc3SjCEGlSunUnI1YLXFu0nBnh8/ZPmL4yb2ycE5NLQP4wpjl3x6JJwPvwgZgXPxUVTOGgYoHolgDF7wfJMHvxIKFm/lSVMjERjLgTRCAAO0sQRAisbMTzgfS/soNK9jqvEA2SBbyyFsr1v5DXFzabXgg8424/GhxJxmGz8whEMdbfweBQXsqMwlv26ov/5BMhureEFJwHqLE0Cqn7jmy8JQkmuuM+3oVDOf/3pps7DVw03Xn4vxjga4nvBDJu43nCeZU205sm/ka/anh1nP9Puy0vkS9f+3Jn7cFY+0G6FTx6dgLchS2s43kHRXD5f9gaXecUEv8j0e3Ak1ULWF0t2ZN/8H7UC7n6fTq/bua3zg6ByM9Yohb24+yJwtfFtJgQ1lvfOz4GtEhrZuI+upe/wkgXDHhsWauSofccWOGeN4sx+jyz7gxvsIXoym2j9QOdFJ74t3gs8x5vxtveU/LdOVaFNNHtdJEW9+J0LygdgPfhShnnyAMi4J6GeivfoeVhpxhz8vQUeiWzd5+O6oJGwtblMAJ1ibdIsEuN/sCr3Jd0Fffu70KgKIOywzr0H9oJWDu42UGIzcrjNKPiSQPzKeDKoebf9gOOKKnqB2wXyXXa6jM9a7Wc6tFb2gf1hb3hkMRHb7+U7Rhe6L0QL6gTXdpIK9odG0l9vkoJVO3/jymhGRavbvje3taNXAx0uQI3RB0PvBXFj3D3DXzhW2/nsFLutsnYjdwIdNPrzbuuI7NJ69vR0dxjYrHwYkY044DN0RCLyz4QL78ag8YJJLEachLp9RT9Wq1bHal93ZDCsJ9pJDnoGsyIePiUCxuXMkJWy9yi+g5X0fIUz9K9T9Apuv3UuUfFz0PFyo54c9+EpgrqZCSRcLwRNGra9OfzJZrJ+mhsMCfE/YZo8PHCw52rZq+a0fQMcmHVWmo2w5Gx80XTPODFu5bwLcxhgFp+dxoLgOpxfEwcMZ1o6+fjBm2jWIdWcKeBjBdTh4VpTsxRIYemc9DOA15nMZNKiFdS5kiCBAegFNF4aq/SxXAqMXRAB89vcgfoMI3aQU4UrIQUTobYa0zCBQn3E3vvxfex3uMbsBI4rYdoJNGl1fzQCzfa2ghqeI6sR4ZHQStpTuGTh99plFRmVCFC8sx1KlYNvmcoJU9HXzxZdCczz1tEunpgHWxoI1GNhtsOB52P+apyLnjbdOLxa3i7kZ1vrSS/MO3IVCsfJSr8dxXK+/VC/5LVFTHoaK81dry7HEkBnW/CjK6Z7talxCcrA56ChRbq8Sh18A7iNzQWM6bpdqZ5bFcvNx19FFsq2E9FdhqHd4/Xx/l+t0Erjb2tPgyriasb2Ny5cbzsCNDe+Z0nu/gbr5PEkFMx/D55dRthUdKTCePXo3DPN9wtafnZsX6Js+HfjjH+8bphNiETLFNO6BdhaGtvLtP4KBL8Pl7eJkN0Ex9hGl/UDVbr+KWk+tHLxi+kfNFQPqk5XuE38+Df6Pny6ByuP6gHVidzap3za8+VuInuNxf7o6fB6Jvo5G89V6MoyrNwuO/QcL4QvlzcwFCgAAAABJRU5ErkJggg==;imageBackground=#FFFFFF;imageBorder=default;shadow=0;fillStyle=dots;" parent="1" vertex="1">
          <mxGeometry x="183.73" y="468.38" width="34.54" height="35" as="geometry" />
        </mxCell>
        <mxCell id="SQ3NC_S40KwjwUbllQxm-50" value="Custom LLM Models" style="rounded=1;whiteSpace=wrap;html=1;dashed=1;" parent="1" vertex="1">
          <mxGeometry x="97.25" y="530" width="207.5" height="20" as="geometry" />
        </mxCell>
        <mxCell id="SQ3NC_S40KwjwUbllQxm-51" value="" style="endArrow=classic;startArrow=classic;html=1;rounded=0;entryX=0.5;entryY=1;entryDx=0;entryDy=0;exitX=1;exitY=0.5;exitDx=0;exitDy=0;" parent="1" source="SQ3NC_S40KwjwUbllQxm-39" target="SQ3NC_S40KwjwUbllQxm-26" edge="1">
          <mxGeometry width="50" height="50" relative="1" as="geometry">
            <mxPoint x="440" y="420" as="sourcePoint" />
            <mxPoint x="490" y="370" as="targetPoint" />
            <Array as="points">
              <mxPoint x="570" y="355" />
            </Array>
          </mxGeometry>
        </mxCell>
        <mxCell id="SQ3NC_S40KwjwUbllQxm-53" value="" style="endArrow=classic;startArrow=classic;html=1;rounded=0;entryX=0.5;entryY=1;entryDx=0;entryDy=0;" parent="1" target="SQ3NC_S40KwjwUbllQxm-39" edge="1">
          <mxGeometry width="50" height="50" relative="1" as="geometry">
            <mxPoint x="193" y="450" as="sourcePoint" />
            <mxPoint x="194.57" y="400" as="targetPoint" />
          </mxGeometry>
        </mxCell>
        <mxCell id="SQ3NC_S40KwjwUbllQxm-54" value="Hugging Face" style="shape=image;verticalLabelPosition=bottom;labelBackgroundColor=default;verticalAlign=top;aspect=fixed;imageAspect=0;image=data:image/jpeg,/9j/4AAQSkZJRgABAQAAAQABAAD/2wCEAAkGBxMTEBUQEBIQFhUVEg8VGBgVFxIWGBUXFxUXFhUVGBUYHSggGBolHRUVIzEhJSkrLi4wFx8zODYtNygtLisBCgoKDg0OGhAQGy0lICUtLS0vLS0uLS0tLS0tLS0tLS8vLS0tLS0tLS0tLS0tLS0vLS0tLS0tLy8tLS0tLS0tLf/AABEIAOEA4QMBEQACEQEDEQH/xAAcAAACAgMBAQAAAAAAAAAAAAAABAUGAQMHAgj/xABIEAABAwEDBwgHBgUDAgcAAAABAAIDEQQFIQYSMUFRYZETFSJScYGh0QcyQmKiscEjU2NyguEUkrLC4jND8BYkNERUg5PS8f/EABsBAQACAwEBAAAAAAAAAAAAAAACAwEEBQYH/8QAOREAAgECAwQHBwQBBAMAAAAAAAECAxEEEjEFFCFRE0FhcZGh0SIygbHB4fAzQlLxBhUjQ2I0U5L/2gAMAwEAAhEDEQA/AO4oAQAgBACAEAIAQAgBACAEAIAQAgBACAEAIAQAgBACAEAIAQAgBACAEAIAQAgBACAEAIAQAgPE0zWir3NaNriAOJUZzjBXk7LtJRjKTtFXIu0ZSWZv+5nH3QT46PFaNTauFhwzX7uP2NqGBry/bbvEJcso/YjkPaWt+RK057eor3Yt+C9TYjsufXJCrstHaoR3vJ/tWu9vvqp+f2LVspdcvL7nj/rKT7pnFyj/AK/P+C8TP+lw/kz23LN2uFp7HkfQqS2++uHn9jD2VHql5DEWWbPbiePylrvnRXQ29SfvQa7rP0KpbLn+2S/PEkLPlLZne2Wn3gR46PFbtPauFn+63fw+xrzwFePVfuJSGZrxVjmuG1pBHELfhOM1eLuuw1ZRlF2krGxSIggBACAEAIAQAgBACAEAIAQAgBACAEBglAQt45Twx1DTyjtjdHe7RwquXidr0KPBPM+z1/s3qOz6s+L4Lt9CuW7Kid+DSIx7unvcfpRcSvtnEVOEfZXZr4/0dKls+jDXj3kWIpZTnUe87TU/EVy51JTd5u77TbvCmrcENxXJIfWLW99T4earuip4mC0GmXCPaeT2AD51WMxW8U+pG5tyRbXnvH0CZiDxMz1zNFsdxKZmY3iZ5dckXvjvH1CZjKxMzS+4W+y9w7QD8qJmJrFPrQrLckg9Utd30Pjh4rN0WRxMHqKFkkRr02HaKjg4KyFSUHeDs+wtvCorcGS1gyqmZhJSQb8HfzD6grrYfbVenwn7S8H4mnV2dSn7vBlouy/oZsGuzXdV2B7tR7l38LtGhiOEXZ8nr9zlV8HVpcWrrmiUW8aoIAQAgBACAEAIAQAgBACAEAICJvi/4oOj67+qDo/MfZ+a5+M2lSw3DWXJfXkbeHwdStx0XP0KZeV8TTmjndHUxtQOHtHtXl8VtCtiOEnZclp9zt0cLTorguPNmbJcz3Yu6A36eGrvWhcTxEVpxJezXXGz2c47XY+GhYuzWlXnLrHFEpBACAEAIAQAgBABCAQtV0RuxAzT7uj+X/8AFLMXwxE468SFtl2vjxIq3aPrsUkzbp1oz7yTufKeSOjZayM+NvYTp7DxXZwe2KlL2avtR8/v8fE1MRs+FTjDg/IuljtbJWB8bg4HZq3EaivUUa0K0c8HdHEqU5U5ZZKzN6tIAgBACAEAIAQAgBACAw40FTgAsN24sJXKhf2VBNY7OaDQX6z+XYN/DavOY/bDd6dD/wCvT18Ds4XZ6XtVfD19CAsVgfKajAVxcfHtK865dbOhUqxpr6FhsdgZH6oqesdP7KDdzRnVlPUZWCsEAIAQAgBACAEAIAQAgBACAirwucO6UdA7ZqPkVJSNmliGuEiMsFuks8lW1B0OadB3EfVbmFxdTDTzQfeupmxVowrws/Ev90Xoy0MzmYEUzmnS0/UbCvY4TGU8TDNHXrXL85nnsRh5UZWl8GPLbKAQAgBACAEAIAQGHOABJIAAJJOgDasNpK7MpNuyKJlHf5mJjjJEQPYX7z7uwcd3k9pbTddunT935/Y72DwapLNP3vkLXXdWdR8mDdQ1u8guK2XVq+XhHUn2tAFAAANQUDSbuZQwCAEAIAQAgBACAEAIAQAgBACAEAneNgbKNjhoP0O5ZTsW0qrg+wgbLaJLPLnNwc3Ag6CNYO0FbWHxE6FRVIP79hu1KcK0LPRnRLrvBs8YkZ2Ea2nWCvb4XEwxFNTh/TPOV6MqM8shtbBSCAEAIAQAgBAUvKy+s9xs8Z6IPTI9oj2ewfPsXmNr7QzN0Kb4LV8+w7eAwmVdJLXqELnu3O+0eOjqHW3nd8159s2q9a3sxJ5QNEEAIAQAgBACAEAIAQGm22yOGMyzPaxjRUucQAP33KynTnUkowV2zDaSuzn96+leJpLbLA+XH1pHck07w2hce8NXdof4/Ukr1Zpdi4+i8LmtLFL9qEIfS3JXp2RhGvNlcD4sNfBXy/x6FvZqPw+5BYp8i55NZaWW2HMjcWS0/wBOSjXH8pBIf3Gu0BcfF7Mr4b2pK8ea0+PWjYp1ozLEueWggBACARvWwco2o9caN/uqSZfRq5HZ6EVcV5mzy1Nc00Dxu202jzGtdHZ+MeGq3/a9fX4F+Kw6rwt19R0ZjwQHAgggEEawdBXtoyUkmtDzbTTsz0smAQAgBACAhMqb15GLNYftH1A90a3fQfsuXtTG7vStH3padnN+hvYHD9LO70RTbqsXKPx9VuJ37AvGt2O3WqZF2loA1BVnNBACAEBlACAwgBACAEBh7wAXOIAAJJOgAYklZSbdkDgmWuVD7dOSCRAwnkmYjDRyjh1z4A02191s/AxwtO37nq/p3Lz15HNq1HN9hXVvlQIDLSQQQSCCCCCQQRiCCNBB1o+PBg7V6N8rTa4jBORy8QBJ0cqzQH06wNA6m0HXQeO2ts9YeanT91+T5en2N+hVzKz1LmuMbAIAQAgIG/rHQ8q3QcHdu3v/AOaVNM3cNUusrJvIu8qtNnccW9Jn5dbe4nx3L1OxMXmi6MtVxXd9vzQ0NpULPpF16loXeOUCAEAIDDnAAk4AAk7gsNpK7MpXdkc0va2medz8cSGtHu6Gj69pK8LjcS8RWc+rq7j02HpKjTUfEsFhswjYGjTpJ2nWtFu5pVJ55XN6wQBACAo2XOXwsrjZ7MGvnHrE4siroBA9Z+7Vr2Ht7N2Q8Qukq8I9XN+i7fDma1avl4R1OU3lfVotBJnnlkrqLiG9zBRo7gvUUcNRoq1OKXz8dTTlOUtWKWW0PiNYnyRnbG5zDxaQrZwjPhNJ96v8zCbWhfMlvSXLG4R26sseA5QAcozeQP8AUaOzO7dC4mN2JTms1Dg+XU/T5dxsU8Q1wkdbs87XsbIxzXNc0Oa5pqHAioIOsLykouMnGSs0byd+KPaiAQFU9J9uMV2ShpoZSyHueemO9geO9dTY1JVMXG/Vd+GnnYpxErQZwxe2OcSNwXLLa52wQgVNS5x9VjRpe7diMNZIC18ViYYam6k/7fIlCDm7IuF8+iueNmfZpmzEDFhbybjtzDnEE7jTtXJw+3qU5Wqxy9t7r48PXuL5YZpcHcoEkZa4tc1zXNJBa4EFpGkEHEHcu6mmrrijWLT6MIpDecRjrRrZjIdQYY3Nx7XFnfTYuZtmUFhJKXXa3ff0uXYe/SKx3NeJOiFVkAgBYB4niD2lp0EU/dZJRk4u6KvZ5XQTBw9aN3HUR2EV4rZw9Z0akakeo6E4xrU2upo6bBKHtD24hwBHYRUL30JqcVKOjPMSi4txfUe1IiCAEBBZYW3k7PmA4yHN/Tpd5fqXK2xiOiw7itZcPh1+nxN/Z9LPVzPRcfQq1wWfOkLzoYPE6Pr4LxrOviZ2jbmWFQNAEAICFyxvn+EsUs7aZ4AbHXH7R5zWmmsCtTuaVu4DDbxiI03pq+5a+hXVnki2fPj3EkucSSSSScSSTUknWScV7xJJWRzDCyDDXA6CCstWBlYB0z0PX67OfYHklua6WL3aEcozsOcHD9W1ec29hFZYiOuj+j+ngbeGnxynUl5g3AQFb9INxvtdidHDjIx7JWNJAzi0EFtTgCWudSuFaaF0dl4qOHxClPRqz7O0qrQc42RxQXLac/kv4a059aZvJSVrw0b9C9lvVDLmzxt3o5+SV7WOzej3Jg2KznlQOXlIdJShzQPUjBGmlSTvcdVF5DamO3qr7PurT6v4/I36NPIuOpaVyy4hb7yTsdrdn2iEF9AM9rnscQNALmEZw7ardw+0MRh1lpy4cuDXmVzpQlxaGbnuaz2RhZZomsBoTSpc4jQXPcS53eVXXxNbESzVZX/OpaEoU4x4IcdIoKBakeDIp5DOUBIjgMpsbIq3Ai0bAVW0RIHKGCjhIPaFD2jR4fJSibuFndOJYsi7ZnwGM6Y3U/S7EeOdwXr9i189DI9Y/J6fU5m0qWWpmXX8ywrsHOBACAomWlpzrRmao2gd7ukfDN4LyW262euofxXm+Pod7ZtPLSzc2M3NDmwt2u6R79HhRcR6mK8rzY6olIIAQHO/TS8/w1nbqNocT2iNwHg53Beg/wAeS6Wb/wCv1Rq4rRHJV6o0jovotySbN/3toYHMa4tia7FrnNPSkI1hpwA2gnUF5/bO0JU/9im7N6vkuXx6+zvZtYelf2mX7KHJSy2tlJYwH06MjAGyN76YjcahcLC4+vhpXg+HJ6P85o2Z0oz1OSXvkDbYZCxkLpmV6MkQBDhvbWrTuOG8r1VDa2Gqxu5ZXyfr1/nA0pUJxely5ejTI2azyOtdqGY8sLGR1BIDiC57yKgHogAA6Ca7uRtfaVOtFUaXFXu39EX0KLi80joi8+bQIAQGUBhACACVlIyLyPWxCJNIXfItiMCaRrMisUCVjLZEcBY2seqZQINDMblrTiQaNF7w50Lto6Q7tPhVVrUnQllmhPI605tpDdUjXN7x0h8iO9drYtbJiMv8l9ye0aeajfkX1euPPggBAcwvGTlJ3uHtSOp2Z1G+FF4LF1Okrzl2s9TRjkpRXJFpa2gAGgADgtM5zd+JlYMAgCqyCOv+5orXAYJwc0kEFpo5jhoe06iKndiQcCtjC4mphqiqQ18muTIzgpqzKPZ/RLGJKyWqR0dfVbGGOI2F+cRwaF2Z/wCQzcbRppPne68LL5mssKr8WdEsdlZFG2KJoaxjQ1rRoAGAC4FScqknOTu2bSSSsjaoGQQAgBACAEAIAQAgPEhVkESQpK5bcEWpCsjltQiWJC75VsKBZYIZg4VaQRtBBHELE4W1McHoNxuWrOJW0NRlas0VMZAqKFar1K9Cq2aTkpmu6kgr+l2PyK2cPU6OrGfJpnSnHpKbXNHUV788qCA12h+axztjXHgKqM5ZYtkoK8kjmN2trKwe808MfovnbPU1XaDLaqzlgSspXMmp0itUDKRrMimoEsoCRMgsbGyKDgRaNgKqasYMrBgEAIAQAgBACAEAIDXKrYEkJyrcgWoj7faGRsdJI5rWtFS5xoAt2lFyaUVxLMyirvQ5RlZlY601iiq2Hfg6Te7Y33eOwegw2FVL2pa/I5WJxbq+zHhH5ll9GFieyzvkdUMleCxv5ahz+84foC09pTi5qK1RtbPg4wcno/y/5yL3EuNM25DcS05lTGmLUlqVMq97MpM8b68QD9VJHSou8EdGu2XOhjf1o4zxaF9Aw889KMuaXyPM1o5aklybGVcVil7GlnlP4Uv9JWvi3ahUa/i/kW4f9WPevmc9ucfbs/V/SV4F6HpK/wCmy0EqCOaaJHq+ESaQu+RbEYFiRqMitUCVgEiOAsbWPVUoEWhiN615xK2jeCqGQBYAIAQAgBACAEAIDxIFODMoquVOVtnslWuOfLTCJhGduLzoYO3HYCuxgsDVr8Vwjzf05kamIjT7+RyO/wDKCa1vzpndEElrG1DGd2t1PaOPYMF6fD4anQjaPj1nOq1pVH7RnJm5HWu0CIVDBR0jh7LK/wBR0DjqKYnEKhDM9ervM0KTqzy9XWdrs1maxrWMADWgNaBoAAoAF5qdRyd2dxWSshqNq1pyItjMbVqzZW2MBa7Kyu38Ptu1rfqPopLQ38N7hd8nHVssX5KcCR9F7nZ7vhodxwcYrV5d5JLdNYVvRtYJRtikHwlUYmOajNc0/kW0HapF9q+Zzu6D9uztP9JXgHoekr/pss8hWIo5yFJStuCLUKyOW1CJakLukWzGBYkDJFiUA0MRuWvOJU0NxFak0VsaYVqyKmelAwCAEAIAQAgBAV+/ssbHZaiSUOkH+3HR767CBgz9RC38Ns3EYjjGNlzfBff4XK51oR1ZzXKP0j2m0VZB/wBvGajomsrhvk9n9NCNpXo8JsWjR9qp7T7dPDr+Pgak8RKWnApZ27SSd5Okneuwa4zdtgknlbDC3Oe44DUBrc46mjWVXVqwpQc5uyRKMXJ2R27JrJ5ljgETMXHF76UL3bdwGgDUN9SvJ4nGSrzzPTqXJHYo01TjZEuI1rOZbc2NYqZTItm9gVEncgz1VRMWK9fx+1H5G/MqS0N7De58S6ZLf+Ei7H/1uXttl/8AiQ+PzZw8d+vL86iVXQNQ8yNqCNoI4rEldWMp2dzl9hObKyup7QeNCvnck1dM9VU4wfcWqVYgc1Ckq24FqFJAtyBbEUkatqDLUVzKrKf+DMbWx57nhxxdmgNFBqBqTVbdDDdPd3skamLxXQ2SV7mm7fSPZ3UE0csZ1kUkbxFHfCoVtl1f2NPy+3ma8cfB+8mvP88Cz3flVYpKZlqgqdAe4Ru/lfQrlVsFiI6wfwV/kT6enLRlhs8jXCrXNcNxB+S5dRNPiG0bVWYBACARtl72eIVmtEEf55GN+ZV1PD1qnuQb7k2Yc4rVkHbvSFd8eAnMh2RMe6v6qBvit6nsfFz/AG272l5a+RU8RTXWVi8vSydFms1NPSmdo/8AbZp/mXSo/wCP/wDtn8I+r9CqWK/iin3vlfbbTUSzvDT7Ef2bew5uLhucSuvQ2dhqHGMOPN8X5/RI15VZy1ZBAUwC3SsEA9c10TWqUQ2dmc7SToawdZ7vZHidVSqMRiKeHhnqOy833EoQc3ZHbMk8lYrFFmt6crgOUkIoXe6B7LBqHGpXjsbtCpip3fCK0X51nTo0lTXaTmYtPOXXDNRzFzIUG7gzVYMGKrJkr98urKdwaPCv1WTdoL2C+ZPspZYh+G08cfqvd4CNsNTXYjz+Ld60u8kFtmuCA5lfEWZaJG7JHEdhOc3wIXhMdTyYice1+fE9Rh5Z6MX2FlDs5ocNYB4iq048GaFrOwvI1bMJE0xWRi2oSLUzS6NXKZPMRt93BDao8yZuIrmubg5hOtp7hgcDRXUsVOjK8f7Ka1KFVWkcvyjyPtFlq8jlIh/uMBwHvt0s7cRvXbw2PpVuGkuT+nP5nIrYedPjquZXlulBhgoajA7RgeKN3VmBtt5TjRPaB2SyD5FVujSesV4IzmfMyb1tH/qLT/8ANL/9ljoKP8I+C9BmlzfiaJp3v9d73fmc53zKnGEY+6ku4Nt6mprQNAAU22zBlYAIAQASgLjkx6PrRaKST50EWnpD7Rw91h9XtdwK5GM2xRo+zT9qXku99fw8UbFPDSlxfBHWbnumGyx8lZ2BjdJ1lx0ZznaXHeV5XEYipXnnqO7+XcdCEIwVkO1VBMxVZFjGcgsYzlmxmxjOSxmxjOSwsV22vzpHEdYjhh9FlLjY36atFHTrLFmMazqta3gKL6FThkgorqSR5Wcs0nLmzapkQQFFy1s+baA/U9gPe3onwzV5PblLLXU+a819rHe2bO9LLyf59Tfc0udC33at4aPAhcN6mK8bTYy9inGRBMXlAGkgduC2IzJrjoLOmZ12cQpqqizLLkYE8fXbxCOqhllyNrbTH12cQqpTMOEuRXr3yFsVqq+OkUhxLoS2hO10fqntFCdq3aG18RR4P2lyfrr9Ow06uFi+NrFHvb0a2yKpi5OdvuEMf3seacHFdqhtvDVPfvF9vFeK9EacsNNacSqW6wywmk8UseNPtGOZwLhj3LqU6sKvuST7ncocXHVC4KsMAgBAYLgNJCWA/d9zWienIQTPrrax2b/OeiOKoq4mjS/Uml8ePhqSjCUtEWy6fRjaH0Npkjhbh0R9o/eMOiO2p7Fy6+3aMeFJOT8F6+SNiGEm/e4F9uHJCyWSjo486Qf7klHP7RhRn6QFwsVtHEYjhJ2XJcF9/iblPDwhoieLloWLrHl0gGJIHas2MpGg2xnXbxCWJdHLkY/jGddvELNjPRy5GP4xnXbxCGejlyPTZ2nQ5p7CChjK0ZLlmwsa5paNJ2AoSUbuxHXFZ+UtMbffDj2N6R+XitvZ9LpcTCPbfw4lmKnkoyfZ8+B0te5PMggBAV/LSyZ0AkGmNwP6XYHxzT3Lj7aoZ8PnWsX5PX6HQ2bUy1cvMq9zW0R5wecCAe8au+vgvINXOvXpudrHq03u95zYxmjdi4+XciRiGHjHjI1Mu6R5q40/MSSpEnWhHghhtx/ifD+6jcr3nsPfMP4nw/umYxvXYHMH4nw/5LGYb12eYpbrA6HNcHVxwIwIKknctp1VUurE1Y5y6NrjpIx7RgfksM1JxyyaNrsRQ4jeiIWIu1ZO2OQ50lkszjtMUdeNKrZhjcRBWjUkviyDpQeqQk/Iu7z/AOVi7i8fIq5bTxa/5H5Ed3p8jLMjrANFkh7853zJWHtLFv8A5GZWHp8h6yXPZov9Kz2dh2sjjaeIFVTUxNap782+9ssjSgtEPFyosTseS5LGbGC5ZsLGC5LGbENLnSzZldZAroFK1PgjNpWpwuOi4PxPh/dRzFO9dgcw/ifD+6xmG9dhg3F+J8P7rNzO9dholudw0OaeIWSccQnqhflJIzR1e/EdxWbk7QnoZtNrzm00Y4rLYjCzuWDIax4vmOroN8C7+3iV6HYVD3qr7l839Dm7Uq8FTXf6FvXozjggBAR9+2uOOB5kxDgWhutxI0DzWpjq1OlRk6mj4W53NjC05zqLJ1ce45zBCXH6rwyVz0rdiXssQaMB36ysmtOTeo9GoMoYWm1NjFXVx0AaSsWEIObshcX3Hsk4N81jKT3afYZ58j2ScG+aZTG7T7CJt9tMrxqaMADqrpJUkjap01TRKQ2yJrQ0PGAA1pY15U5t3seucI+uPFLGOilyMfx8fXHis2HRS5G1soIqCCNyWMONtQzksLGC5ZsLGC5LGbGh1sYPaCE1TlyPP8azrDxQz0cuR5NsZ1h4rJno5EfPJSTPYddewqLLkrxsyXiv1lOk1wOulCPmoZTVeFlfgzPPkeyTg3zTKY3afYe4LzY92aM4E6KgY8Cs2MSoyirs3vREELTCooVNFsSItdlpi3Rs2LLibUJ31LRkbejSwWcgNc3OLffFanvHy7F6bY2MhKCoPg1p2/c5G0cPJS6VcU/Is67pywQAgOeZQ3gZ5zmnoNJa3Zvd304ALxe0sU8RXsvdXBfV/H5Ho8HQ6Gnx1fFmqBtMAtO1i6Q7EoMokNRqDKmeLZYxIACSCNBHisXMwqOD4CvMLeueATMWb0+RnmFvXdwHmmYb0+Qcwt67uA80zDenyDmFvXdwHmmYb0+Qcwt67uA80zDenyA3APvDwHmmYb0+RHtDoZcw7QDsIOgqSL+FSF0SRepWKLGC9ZsZsI3jOfVGvE+Swy6nHrGbPcdWgveQSK0A0d6rzFMsVZ2SNnMLeu7gEzGN6fIOYW9d3AJmG9PkHMLeu7gEzDenyDmFvXdwCZhvT5BzC3ru4BMw3p8jZZrpaxwdnE00aAlyMq7krWGnoitC8imi2InMrEXREHEseHsNCCCCNRCwpSpyU4uzRZZTi4yOj3VbRNC2UaxiNjhgRxXucLiFXpRqLr+fWear0nSqODG1sFJHZQWrk7NI4ac3NHa45te6te5aePrdFh5yWtrePA2cJT6StFP8sc+sjdJ7l4mC6z0chuPSpsgxyJVsokNRqDKmb2qJA2BYInmWQNaXO0AVKBJt2RG8+s6r/h81nKbG6y5oOfmdV/w+aZRusuaDn5nVf8PmmUbrLmgN/M6j/h80ymd1lzRDz2jlJM92FSO4DQFNG1GGSNkPCUHEFWFeUwXrNjNhK1uBIIO5QlYsirEnZr8AaA9rqgAVFMd+KrymtLCtvgzbz8zqv+HzWMpHdZc0HPzOq/4fNMo3WXNBz8zqv+HzTKN1lzQ5Ybc2UHNqCNIO/QVhqxTUpOGowhA8OWTKNL1lE0LyKaLYicysRdEWmbVpRq6JrUnshbVjJCdzx/S7+1d3YNb36Xx+j+hzdqU+EZ/D0+pbl6M45XcuH0s7Rtlb4Nd+y4u3JWw6X/b6M6WzF/ut9n1RU7MOiO9eZjodmWpvj0rLIsciVbKJDUagypm9qiQNgWCJ5ljDmlrtBFCgTad0RvMLOs/4fJZzGxvUuSDmFnWf8PkmYzvUuSDmFnWf8PkmYb1Lkg5hZ1n/AA+SZhvUuSMG4Wdd/h5JmG9S5ETJGY5Cw6iB2g6D4qyLNqMlON0FqfqUpvqMxRI2W5AWgvc4EgGgphXtVTka08S07JG7mJnWf8PksZiG9S5IOYmdZ/w+SZhvUuSDmJnWf8PkmYb1Lkg5iZ1n/D5JmG9S5IcsNhbEDm1JNKk7tCw3cqqVXPUYQgeHLJlGl6yiaF5FNFsROZWIuiaVImNZIvpa2ja2RvhX+1b2xpZcUlzTX1+hrbQV6DfcX9ewPPFdy4ZWztOyVvAtcPnRcbbkW8Onya+TOjsx2qtdnoVOzHo8V5iOh2pam+PSssixyJVsokNRqDKmb2qJA2BYInmaUNaXO0AVQzGLk7Iiufm9R3EKWU2d1fMOfm9R3EJlG6vmHPzeo7iEyjdXzDn5vUdxCZRur5gb/H3Z4jyTKN1fMi3PMkhedZqd1NAU4o2VFQjZGbUyuOxTmjMWPWW+81oa5tSABUGle0KnKa88Nd3TNvPzfu3cR5JlI7q+Yc/N+7dxHkmUbq+Yc/N+7dxHkmUbq+Yc/N+7dxHkmUbq+Y7YLe2UGgIIpUHfoNe5RasU1KThqNIVnhyyZRpesomheRTRbETmViLomlSJjWSDK2sHY2R3hm/3Le2NHNik+Sb+n1NXaDtQa7i/r2B58Qv2y8rZ5GDTm1Ha3pAd9Kd61MdR6bDzgtbcO9cTYwtTo6sZM55ZHaR3rxEH1HpJIbj0qbIMciVbKJDUagypm9qiQNgWCJiSMOBa4VBFCgTad0R3Mce2TiPJZzF+8z7A5jj2ycW+SZjO8z7A5jj2ycW+SZhvM+wOY49snFvkmYbzPsIu9LDyThQ1Dq0rpw0g8QpJ3NijV6RcTMegU2K9aEmelkCvJ58gY2gqQP3VMtSTlljdk024o6YufxaPCirzGm8VPsM8xx7ZOLfJMxjeZ9gcxx7ZOLfJMw3mfYHMce2TiPJMw3mfYN2OxMjBDK46ScSdiw3crnUlPU3oQPDlkyjS9ZRNC8imi2InMrEXRFpnUaUk7ImtSfyFsv8AqTHcwf1O/tXe2DR4SqvuX1+hzNqVPdh8fT6ltXojkAgOfZS3cYJ85o6DyXN2A+03/moheO2phHQrZl7suK+qPRYKv0tOz1RogfXELQvcvkh2JQZRIajUGVM3tUSBsCwRI63XsI35gaXEUrjTSK7FlIvp4dzV7i/P/wCH8X+KZSzde3yDn/8AD+L/ABTKN17fIOf/AMP4v8Uyjde3yDn/APD+L/FMo3Xt8iPttrdM4YUA0DZtNVJIvp01TRtaKCivBlZArI4teHNONQRuIVUlxJWurMk23+aYxiu51PCirymtuvaHP/4fxf4rGUbp2+Qc/wD4fxf4plG6dvkHP/4fxf4plG6dvkZbf+2PDc79lnKN17SYBqKjWAVE1NDy5ZMo0vWUTQvIpotiJzKxF0RENdK9sbBUk0A2nb2JCEqs1COrLHJQi5SOkXbYxDE2JvsjE7TpJ41XucNQjQpRpx6jzNaq6s3N9YyryoEAreVhbNGY36DiDradRCoxOHhiKbhP+u0to1pUp5onPrbY5LNJmvHYdThtH/MF4vFYWphZ5ZfB8z0VKtCvC8f6G7JOHaDjs1rXuQnFofjUGUM3tUSBsCwRFbTd0chznA12g0qiZZCtKKsjVzLFsdxWczJbxMOZYtjuKZmN4mJXpdTWML2E4UqDjgTTDispl1Gu5SyyE7HdksrS6JhcAaGhbppXQTVbdDBVq0XKnG6+BZUxFOm7TdjL7pnGmGXuY4/ILMsDiY6034BYmi/3LxPHN033M38j/JR3TEfwl4Mz09L+S8UemXTOdEM3exw+YUo4HEy0py8GYeJor9y8RmLJy0u/2iO1zB4Vqr47Jxcv22+KKpY6gv3fMc/6TlDXPkfG0Na52FXHAV3LZWxKii5TklZX4cfQp/1KDkoxTd/gRd1WLlX0JIAFTTTuC4jdjcrVMi4ExzNFsdxKjmZqbxMOZotjuJTMxvEzIueLYe8lMzG8VB5YKTw5ZMo0vWUTQrO8AVJoFNFsVciZ5y85jATU0AGlx2UUknJ5YribKSirsuWTVxciOUkpyjh/INg37T/w+s2Zs7d455+8/Ls9fy/ExuL6V5Y+78ydXWNAEAIAQGi2WRkrCyRocDt1bwdRVVajCtHJNXROnUlTlmi7MqV5ZJSNOdA7PGwkBw79B8F5zE7EnF3ou65PX0fkdijtKEuFRW+REutE8RpI1w/O0/PWuNVoVKbtOLXebijSqcYvwNrb7d1G8SqrEXhlzPfPx6g4nyWMpjdVzDn4/djifJMo3Vcw5+P3Y4nyTKN1XMOfj92OJ8kyjdVzNFqvF81I2t0kYNqS46gpwpuUrRV2ThSjS9psuuTl3GCANd6ziXO3EgCncAPFe12dhXh6CjLV8WcLGV1WqXWi4IlFvmqCAEAIDy9gILToIIPYVhpNWZlOzujns9llsk1DShJAc6ua5u8jXu0rw2LwU6FRxlp1Pn9z0cKsMRTv18utEmL0i+8HB3ktHKzX6GfIzznF943x8lnI/wAaHQz5GecYvvGrPRS/GvUx0U+Qfx8X3jOKz0UuzxXqOinyYlbb2zT0A1w25w09gxR02lx+aLqdC648BF16SONGgV90ElZjBydoq5d0MI8WN2TJ+0TGrwWDbJp7m6fkunh9k4ir7yyrt9CmpjaNJWjx7vUtl0XJFAKtGc/W86ewDUF6PB7PpYZXjxfN/nA5GIxdStrwXIk1vGqCAEAIAQAgBAa7R6h7FGfuslD3kUW9NJ7V5nFndoaCC0TYBACAEBZsj9Luz6rubJ0ZzNodRZ12jlggBACAEAIBK+P9F3YtfFfpMvw/6iKOvNHcBAZCyAQweo9KlDUw9C4XJ6nBd/Ce6cfE+8SS2zWBACAEAID/2Q==;" parent="1" vertex="1">
          <mxGeometry x="280" y="465" width="35" height="35" as="geometry" />
        </mxCell>
        <mxCell id="SQ3NC_S40KwjwUbllQxm-56" value="&lt;font style=&quot;font-size: 10px;&quot;&gt;Prompt management&lt;/font&gt;" style="rounded=1;whiteSpace=wrap;html=1;fillColor=#d5e8d4;strokeColor=#82b366;" parent="1" vertex="1">
          <mxGeometry x="74.5" y="330" width="65.5" height="40" as="geometry" />
        </mxCell>
        <mxCell id="SQ3NC_S40KwjwUbllQxm-63" style="edgeStyle=orthogonalEdgeStyle;rounded=0;orthogonalLoop=1;jettySize=auto;html=1;" parent="1" source="SQ3NC_S40KwjwUbllQxm-57" target="SQ3NC_S40KwjwUbllQxm-40" edge="1">
          <mxGeometry relative="1" as="geometry">
            <Array as="points">
              <mxPoint x="575" y="430" />
              <mxPoint x="298" y="430" />
            </Array>
          </mxGeometry>
        </mxCell>
        <mxCell id="SQ3NC_S40KwjwUbllQxm-57" value="&lt;font style=&quot;font-size: 9px;&quot;&gt;Local Data&lt;/font&gt;" style="rounded=1;whiteSpace=wrap;html=1;align=left;verticalAlign=top;labelBackgroundColor=none;fillColor=#dae8fc;strokeColor=#6c8ebf;" parent="1" vertex="1">
          <mxGeometry x="395" y="450" width="350" height="110" as="geometry" />
        </mxCell>
        <mxCell id="SQ3NC_S40KwjwUbllQxm-58" value="&lt;font&gt;Logs&lt;/font&gt;" style="rounded=1;whiteSpace=wrap;html=1;fillColor=#d5e8d4;strokeColor=#82b366;fontSize=10;" parent="1" vertex="1">
          <mxGeometry x="425" y="478" width="65.5" height="40" as="geometry" />
        </mxCell>
        <mxCell id="SQ3NC_S40KwjwUbllQxm-59" value="&lt;font&gt;Knowledge&lt;/font&gt;&lt;div&gt;Repository&lt;br&gt;&lt;/div&gt;" style="rounded=1;whiteSpace=wrap;html=1;fillColor=#d5e8d4;strokeColor=#82b366;fontSize=10;" parent="1" vertex="1">
          <mxGeometry x="547" y="479" width="65.5" height="40" as="geometry" />
        </mxCell>
        <mxCell id="SQ3NC_S40KwjwUbllQxm-60" value="&lt;span&gt;DataBase&lt;/span&gt;" style="rounded=1;whiteSpace=wrap;html=1;fillColor=#d5e8d4;strokeColor=#82b366;fontSize=10;" parent="1" vertex="1">
          <mxGeometry x="660" y="479" width="65.5" height="40" as="geometry" />
        </mxCell>
        <mxCell id="SQ3NC_S40KwjwUbllQxm-64" value="&lt;font style=&quot;font-size: 9px;&quot;&gt;Extendable Modules&lt;/font&gt;" style="rounded=1;whiteSpace=wrap;html=1;fillColor=#d5e8d4;strokeColor=#82b366;dashed=1;" parent="1" vertex="1">
          <mxGeometry x="105" y="380" width="170" height="20" as="geometry" />
        </mxCell>
        <mxCell id="SQ3NC_S40KwjwUbllQxm-65" value="&lt;font style=&quot;font-size: 9px;&quot;&gt;Additional data sources&lt;/font&gt;" style="rounded=1;whiteSpace=wrap;html=1;fillColor=#d5e8d4;strokeColor=#82b366;dashed=1;" parent="1" vertex="1">
          <mxGeometry x="494.75" y="530" width="170" height="20" as="geometry" />
        </mxCell>
        <mxCell id="SQ3NC_S40KwjwUbllQxm-68" value="" style="endArrow=classic;startArrow=classic;html=1;rounded=0;entryX=0.473;entryY=1;entryDx=0;entryDy=0;entryPerimeter=0;" parent="1" source="SQ3NC_S40KwjwUbllQxm-39" target="SQ3NC_S40KwjwUbllQxm-1" edge="1">
          <mxGeometry width="50" height="50" relative="1" as="geometry">
            <mxPoint x="307.25" y="150" as="sourcePoint" />
            <mxPoint x="307.25" y="110" as="targetPoint" />
          </mxGeometry>
        </mxCell>
        <mxCell id="uDNDOpZhy8Ht1KEGA2yY-1" value="DeepSeek" style="shape=image;verticalLabelPosition=bottom;labelBackgroundColor=default;verticalAlign=top;aspect=fixed;imageAspect=0;image=data:image/png,iVBORw0KGgoAAAANSUhEUgAAAJQAAACUCAMAAABC4vDmAAAAclBMVEX///9Na/5Kaf5CY/49YP5HZ/5EZf45Xf5Yc/40Wv4xWP73+P+bqf5Rbv5lff5UcP7u8P9dd/6grf5vhf6Rof55jf6st/60vv7o6/5rgv6LnP7Q1v67xP7z9P9hev5/kv7b4P7i5v7W2/7Fzf6Fl/6msv4j5uKuAAAHVklEQVR4nO1b16KqOhCVNKoUpSkWEP3/X7yolJAEGNRzzn3Iets7hCwmM5MpcbPR0NDQ0NDQ0NDQ0NDQ0NDQ+B/BjZP8X3OQkNpm/G9WDovMi+O0UAxhw8B/nc+mqmPLsQlmmDhbaacyYhh29XcZufXVwhgZLyCchOIDV9pIavcnKYRVVTaoQvf9d+Ehm7aMGk7oJM3IrWYYWRLXn+B8S+/+xbKC7XYbBNbFTx7144Bwz6iBeZPn3cznCL7+nlGZJqZDGGrQigQhSswRI8MgqWJqZr7H7ue5Bap6JSO33iNCjUUgX7VHHn6PsuDkTi5RWOS4ilN2cQCMGtC7avodd5ztKJugdcMUoRUOtvAxjNIUqYQNosSWyo9tiuCpBiWUkusBpfRa86BSmyvjHzEVand6fbbs4CZQBXiKgQpEdgibzXH8CpINXxw2yGv/ZS4omNa4EWoEF9NLDljxtTsiPPN27u4pTiIripjZ2rMP43SykWrpOVaBbNm1OX7m5bHCHcZP5Ub9CgxmfRkR1wSwMj1xF0qB1FN5ikj8p2Gqtl7+Qns9pwZ4K5y9eSTIm51SxRaYED0v16nTACqef1fhTchnilk+QM/PZK0+DYua45AgEy1Y9Wb2AAjqqvgaMMg40HQAU1i5zOkhKeI6Vld+M7xli4EEEfkqn6lixZ841fLz9rKg3ORTLR9YJZyssiW5Y29ZUMV3m/dmxcsqmtdQagBML/jY8nhWnJqE1twbEQKkFadvNaplxdlg5UyzQqYynhnD3X+tUTKrMph6KTUAnOTD6nNWnBfNJ6IgbIHiqOtvdu/FirMqN1a4K0wgnrw5YJTHwKes+DXvgg1SjO8liNOv1LxjxYVJfAzKiI33KTiZ97ipfBT2Kash3+OyxO09LUJg/Nvg7LfhKbYdal0uFnGanPMLaiRqt+g2HMxcoA5C/rY9ZMS3PDw3CKvaOwQInGhJoGj3kslxUKm1pNqQ2h5XBc5Furc/DrHMQxP3uf4wHWhzPd4qhZg04IapTwFG0NiUJFSK/VPK2d7aytA7QEBIOVgc7QVayEx23hWbolCRyXuptZJqw3wyMZzHxhwtZLys3M2iWfLmuhqL20YIzuQT5XEmkyfdauF1Ltx0ylWkwm07babyVuwnFySDCOaCYAfuop6oOlJz3+LuJJ1pgdAuq9vvUZ117VPWOlJlO28hYa0mdYYx3GXJk7JiyprRMqkloz0fJxKn5gAw7DY4SCaYK8uQAFJ0MefJmGoL8WlzQoi9d9CN1CaBVxY4O51SF8BGKFRFGfPlurugeyID2ZbrSOXbbubyxEqRpDTmVzfeqlPknWoDoaWoHucukyEAEVeKoto2CRCyuidcVXyxVs83my4ZwpAiVn6RWT37C5f+iUJhgfbamvmmO8snTj8BFVVpOwr6B1TJ9pxjVqMPpB1QrFopI3o6ZE2yqJYNW8KjewkwvFAW/ChXdZFIr/VSm6ehd3uwh50FytKoee8nyxl7uZpU3rsWrGhJqXBXmX3X93MfUh1vrUNocO7rpiD7e67rq/w2I/Gprj0myRFWBhYwpIzTMdUYN3WhpwmLMZbNgH3Sjkx7eYM1Ml1RfcAfNd5v/WYAzr831lT+KFBTBQwlM/D254ptmuC0/4gTl7cjAzoH3DJRdZkhKAd3qOyVKQHcQPZpf5ur5KEIaio5rBnwoUZtePsbVb0WJkEscGX3mseZ2wpSAidBLPCrKxNcdYsCT8BmA5dbcXAVVb2fFxXY2S1aIF4dcY4Qc6cogVSUX0jmlf3b+y4h93qEStUjVSW5e3fehZKPLa/FjrMlGilOm8Jgh4eobqc5C3TWx3YC3AOnVkxxh6VJyRE2H8LATJuQ/OAGVcFn5SSRxt+3DUxfUDh/qsRADt9zEqoT+CDKqn4PI+c6GgnF1nqnAmDPMovzKJ6UWFV9fji+U1Mp6x6U/OiiWT4qBjMqbJQ33ECKeSkUKr8g3lX4HKeRMxSvG5y5Uv2eb0RlsqwgJQAohNc74wts3HUDavOEU8mzIyv73ZXK4/j1OOLdX3jhtncUeT+kUxARKwEfDEuIx34H2cdho/gOwrOpwG2hLKvmXHAQvGk1D7HwjK179+Z4HKowgxNjrSrUIhLEvzHCWNgKxBx6fJwyzxClgfg2wk3ZnEXYOf6EllziRYwQojp7yX6wsnzCt5vfhS8dsqmauQzqXB5FJ4pU+QhXT/sKdQC/IYQwsvwk9jwvvm8plSea4KB/AflhzUU4hCh+gtmP+krs5827foA4yU/OwBd26/uibPtUsHPtHSJrayCKjCDa737mrJ64+StvMpJD2U8Oq1tRFOXvf+fgptsVVwMY/aOX4gdUng1UeOQk5d/htHl2RQNAb5thMRz9w6jSraPsE/VCwk5S/87AoCiPPiPqkj4mxn73Z37LsIhzkSXs+YsU+rr8ixofiYnpONHx9G1m9yXCIvXuSbLf75PkevSy4n/0wybX/fsKpKGhoaGhoaGhoaGhoaGh8W/xHxQHXquWaQuYAAAAAElFTkSuQmCC;" vertex="1" parent="1">
          <mxGeometry x="85.75" y="461.63" width="41.75" height="41.75" as="geometry" />
        </mxCell>
      </root>
    </mxGraphModel>
  </diagram>
</mxfile>
